<svg width="113" height="80" viewBox="0 0 113 80" fill="none" xmlns="http://www.w3.org/2000/svg"><path d="M21.16 12.76L18.7 3.61h-2.93l-2.53 9.15L9.6 1.09H5.7L11.75 19h2.89l2.55-9.72 2.6 9.72h2.88l6.09-17.91h-3.93l-3.67 11.67zm11.22-8.03a2.1 2.1 0 002.16-2.06c0-1.14-.97-2.03-2.16-2.03-1.17 0-2.16.89-2.16 2.03 0 1.15.99 2.06 2.16 2.06zM34.09 19V6.86h-3.4V19h3.4zm8-12.14V2.44h-3.4v4.42h-2.21V9.5h2.2V19h3.41V9.51h2.58V6.86h-2.58zm11.84-.31c-1.17 0-3.12.67-3.64 2.23V.25h-3.4V19h3.4v-6.37c0-2.18 1.51-2.86 2.73-2.86 1.17 0 2.32.88 2.32 2.78V19h3.4v-6.66c.03-3.64-1.64-5.8-4.8-5.8z" fill="#fff"/><path d="M72.8 6.86V2.44h-3.41v4.42h-2.22V9.5h2.22V19h3.4V9.51h2.57V6.86H72.8zM83.07 19.3c3.45 0 6.52-2.55 6.52-6.37 0-3.85-3.07-6.4-6.52-6.4-3.46 0-6.53 2.55-6.53 6.4 0 3.82 3.07 6.37 6.53 6.37zm0-3.17a3.07 3.07 0 01-3.07-3.2c0-1.9 1.38-3.22 3.07-3.22s3.06 1.32 3.06 3.22c0 1.87-1.37 3.2-3.06 3.2zm16.51-9.6c-1.38 0-3.04.58-3.9 1.8V6.86h-3.4v18.1h3.4v-7.47c.86 1.25 2.52 1.82 3.9 1.82 3.12 0 5.95-2.47 5.95-6.4 0-3.87-2.83-6.36-5.95-6.36zm-.65 9.6a3.22 3.22 0 010-6.42 3.17 3.17 0 013.12 3.22c0 1.8-1.4 3.2-3.12 3.2zM7.62 49.31a6.15 6.15 0 005.12-2.6l-2.57-1.8a3.2 3.2 0 01-2.53 1.23 3.15 3.15 0 01-3.22-3.25 3.1 3.1 0 013.22-3.17c.97 0 1.98.47 2.53 1.22l2.57-1.8a6.15 6.15 0 00-5.12-2.6c-3.54 0-6.66 2.5-6.66 6.35 0 3.85 3.12 6.42 6.66 6.42zm15.85-6.03c0 2.18-1.51 2.86-2.73 2.86-1.17 0-2.32-.88-2.32-2.78v-6.5h-3.4v6.68c-.03 3.64 1.64 5.77 4.8 5.77 1.2 0 3.13-.7 3.65-2.29V49h3.4V36.86h-3.4v6.42zm11.13 6.03c2.5 0 5.1-1.32 5.1-3.87 0-.99-.37-2.81-3.28-3.59l-2-.52c-.68-.18-1.2-.47-1.2-1.04 0-.62.62-1.07 1.4-1.07.8 0 1.48.45 1.48 1.28h3.25c.03-2.89-2.57-3.95-4.78-3.95-2.8 0-4.76 1.76-4.76 3.64 0 1.27.42 3.01 3.54 3.84l1.61.4c.91.23 1.33.49 1.33 1 0 .71-.76 1.2-1.75 1.2-1.2 0-1.79-.75-1.79-1.45h-3.2c.03 2.68 2.5 4.13 5.05 4.13zm12.27-12.45v-4.42h-3.4v4.42h-2.22v2.65h2.21V49h3.4v-9.49h2.58v-2.65h-2.57zM57.15 49.3c3.46 0 6.53-2.55 6.53-6.37 0-3.85-3.07-6.4-6.53-6.4-3.45 0-6.52 2.55-6.52 6.4 0 3.82 3.06 6.37 6.52 6.37zm0-3.17a3.07 3.07 0 01-3.06-3.2c0-1.9 1.37-3.22 3.06-3.22 1.7 0 3.07 1.32 3.07 3.22 0 1.87-1.38 3.2-3.07 3.2zm24-9.6c-1.27 0-3.17.63-4.05 2.4a4.09 4.09 0 00-3.9-2.4c-1.3 0-2.94.76-3.43 2.27v-1.95h-3.4V49h3.4v-6.4c0-2.18 1.25-2.86 2.47-2.86 1.14 0 2.13.84 2.13 2.76V49h3.4v-5.98c0-2.26.94-3.3 2.4-3.28 1.2 0 2.18.81 2.18 2.7V49h3.43v-6.66c0-3.64-1.58-5.8-4.62-5.8zm19.92 6.2c0-3.72-2.83-6.2-6.31-6.2-3.46 0-6.45 2.48-6.45 6.4 0 3.75 2.73 6.37 6.47 6.37 2.13 0 4.24-.9 5.38-2.44l-1.97-2a4.34 4.34 0 01-3.2 1.43c-1.61 0-2.76-.84-3.12-2.27H101c.05-.54.07-.96.07-1.3zm-9.2-.92c.36-1.63 1.56-2.34 2.96-2.34 1.54 0 2.7.91 2.81 2.34h-5.77zm18.78-5.27c-1.5 0-2.88.88-3.56 2.9v-2.6h-3.38V49h3.4v-4.16c0-3.46 1.2-5.1 2.95-5.1.41 0 1 .06 1.74.45l.78-3.25a4.32 4.32 0 00-1.93-.4zM19.17 79.3c2.5 0 5.1-1.32 5.1-3.87 0-.99-.37-2.81-3.28-3.59l-2-.52c-.68-.18-1.2-.47-1.2-1.04 0-.62.63-1.07 1.4-1.07.81 0 1.49.45 1.49 1.28h3.25c.03-2.89-2.57-3.95-4.78-3.95-2.81 0-4.76 1.76-4.76 3.64 0 1.27.41 3.01 3.53 3.84l1.62.4c.9.23 1.32.49 1.32 1 0 .71-.75 1.2-1.74 1.2-1.2 0-1.8-.75-1.8-1.45h-3.2c.03 2.68 2.5 4.13 5.05 4.13zm19.81-6.58c0-3.71-2.83-6.18-6.32-6.18-3.46 0-6.45 2.47-6.45 6.4 0 3.74 2.73 6.36 6.48 6.36 2.13 0 4.24-.9 5.38-2.44l-1.98-2a4.34 4.34 0 01-3.2 1.43c-1.6 0-2.75-.84-3.11-2.27h9.12c.05-.54.08-.96.08-1.3zm-9.2-.9c.36-1.64 1.56-2.35 2.96-2.35 1.53 0 2.7.91 2.8 2.34h-5.76zm18.78-5.28c-1.5 0-2.89.88-3.56 2.9v-2.6h-3.38V79h3.4v-4.16c0-3.46 1.2-5.1 2.94-5.1.42 0 1.02.06 1.74.45l.78-3.25a4.32 4.32 0 00-1.92-.4zm8.8 8.06l-2.97-7.75h-3.7L55.83 79h3.04l5.12-12.14h-3.72l-2.9 7.75zm10.12-9.88a2.1 2.1 0 002.16-2.06c0-1.14-.96-2.03-2.16-2.03-1.17 0-2.16.89-2.16 2.03 0 1.15.99 2.06 2.16 2.06zM69.2 79V66.86h-3.41V79h3.4zm9.32.31a6.15 6.15 0 005.12-2.6l-2.57-1.8a3.2 3.2 0 01-2.52 1.23 3.15 3.15 0 01-3.23-3.25 3.1 3.1 0 013.23-3.17c.96 0 1.97.47 2.52 1.22l2.57-1.8a6.15 6.15 0 00-5.12-2.6c-3.53 0-6.65 2.5-6.65 6.35 0 3.85 3.12 6.42 6.65 6.42zm19.4-6.58c0-3.71-2.84-6.18-6.33-6.18-3.45 0-6.44 2.47-6.44 6.4 0 3.74 2.73 6.36 6.47 6.36 2.13 0 4.24-.9 5.38-2.44l-1.97-2a4.34 4.34 0 01-3.2 1.43c-1.61 0-2.76-.84-3.12-2.27h9.12c.06-.54.08-.96.08-1.3zm-9.21-.9c.36-1.64 1.56-2.35 2.96-2.35 1.54 0 2.7.91 2.81 2.34h-5.77z" fill="#00D37E"/></svg>