<svg width="160" height="83" viewBox="0 0 160 83" fill="none" xmlns="http://www.w3.org/2000/svg"><path fill="#000" d="M0 0h160v83H0z"/><path d="M17.99 16.8l.81-.74c.16.16.33.33.53.5a2.4 2.4 0 001.62.59c.53 0 .94-.12 1.24-.36.3-.25.44-.57.44-.97 0-.45-.17-.78-.5-1-.33-.22-.81-.4-1.45-.53a3.64 3.64 0 01-1.67-.78c-.43-.38-.64-.89-.64-1.52 0-.4.1-.75.3-1.08.2-.34.5-.6.9-.8.4-.21.9-.32 1.48-.32.52 0 .95.07 1.28.22a2.6 2.6 0 011.21.9l-.76.7a2.14 2.14 0 00-.91-.65c-.24-.1-.53-.15-.87-.15-.34 0-.61.06-.83.18-.21.11-.37.26-.48.43a.99.99 0 00-.15.53c0 .4.16.69.49.89.33.2.8.36 1.4.5.4.08.78.22 1.14.41.36.19.65.45.88.78.23.33.35.77.35 1.31 0 .46-.13.87-.38 1.22-.24.36-.58.64-1 .84a3.84 3.84 0 01-3.77-.46c-.27-.22-.5-.43-.66-.64zm7.34-.62v-2.86h-1v-.9h1V10.6h1.08v1.82h1.63v.9h-1.63v2.75c0 .45.07.75.2.92.15.17.35.25.6.25a1.21 1.21 0 00.93-.38l.5.66a2.18 2.18 0 01-1.6.64c-.58 0-1-.16-1.29-.48-.28-.33-.42-.83-.42-1.5zm6.45 1.99c-.57 0-1.07-.13-1.52-.4-.45-.27-.8-.63-1.06-1.08a3.06 3.06 0 01-.37-1.49 2.88 2.88 0 011.43-2.56c.45-.26.95-.4 1.52-.4a2.88 2.88 0 012.95 2.96 2.99 2.99 0 01-1.44 2.57c-.44.27-.94.4-1.5.4zm0-.94c.4 0 .73-.1 1-.29a2.2 2.2 0 00.64-2.71 1.83 1.83 0 00-.64-.75c-.28-.2-.61-.3-1-.3-.38 0-.71.1-1 .3-.27.19-.49.44-.64.75a2.24 2.24 0 00.01 1.95c.15.3.36.55.64.75.28.2.6.3 1 .3zm8.37-.7l.66.7c-.25.28-.56.51-.93.69a3 3 0 01-1.26.25c-.6 0-1.12-.13-1.56-.39-.43-.25-.76-.6-1-1.04a3.2 3.2 0 01-.36-1.54c0-.54.12-1.04.37-1.48a2.88 2.88 0 012.56-1.48 2.81 2.81 0 012.17.94l-.71.68c-.17-.2-.37-.37-.61-.5a1.88 1.88 0 00-.86-.17A1.72 1.72 0 0037 14.2c-.14.3-.21.63-.21 1a1.98 1.98 0 00.85 1.73 2.04 2.04 0 001.86.1c.26-.13.48-.3.65-.5zM41.87 18v-8h1.08v4.71l2.34-2.29h1.3l-2.12 2.06L46.9 18h-1.28l-1.9-2.8-.76.75V18h-1.08zm5.58-.68l.66-.72a2.27 2.27 0 001.7.66c.35 0 .65-.06.9-.17.23-.12.35-.3.35-.55a.6.6 0 00-.14-.42c-.1-.1-.26-.2-.5-.28a8 8 0 00-.95-.28 5.2 5.2 0 01-.84-.28c-.28-.13-.5-.3-.68-.52a1.36 1.36 0 01-.26-.86c0-.36.1-.67.31-.92.22-.24.5-.43.83-.55a3.51 3.51 0 012.28 0c.34.12.64.3.89.52l-.59.74a2.25 2.25 0 00-1.51-.54c-.35 0-.62.06-.83.17-.2.11-.31.3-.31.55 0 .24.14.42.42.54.28.11.64.22 1.08.33.35.08.67.18.95.32.28.13.51.3.68.53.18.22.26.51.26.87 0 .37-.1.68-.33.94-.22.25-.5.44-.85.58-.36.12-.74.19-1.14.19-1.06 0-1.85-.29-2.38-.85zm7.83 0l.66-.72a2.27 2.27 0 001.69.66c.36 0 .66-.06.9-.17.24-.12.36-.3.36-.55a.6.6 0 00-.14-.42c-.1-.1-.26-.2-.5-.28a8 8 0 00-.96-.28 5.2 5.2 0 01-.84-.28c-.27-.13-.5-.3-.67-.52a1.36 1.36 0 01-.26-.86c0-.36.1-.67.31-.92.22-.24.5-.43.83-.55a3.51 3.51 0 012.28 0c.34.12.64.3.89.52l-.6.74a2.25 2.25 0 00-1.51-.54c-.34 0-.61.06-.82.17-.21.11-.31.3-.31.55 0 .24.14.42.42.54.28.11.64.22 1.08.33.35.08.66.18.94.32.3.13.52.3.69.53.17.22.26.51.26.87 0 .37-.11.68-.33.94-.22.25-.5.44-.86.58-.35.12-.73.19-1.14.19-1.05 0-1.84-.29-2.37-.85zm10.43-.78l.62.64a2.9 2.9 0 01-1.25.8c-.33.13-.73.19-1.2.19a2.73 2.73 0 01-2.56-1.43 3.33 3.33 0 01-.36-1.57c0-.55.12-1.04.35-1.48a2.75 2.75 0 012.44-1.44c.64 0 1.17.16 1.57.47.4.31.69.72.87 1.21.19.5.28 1.03.28 1.6h-4.4c0 .33.1.62.26.89.17.25.39.46.66.6.28.15.58.22.9.22a2.49 2.49 0 001.82-.7zm-3.64-1.82h3.28a1.8 1.8 0 00-.45-1.1c-.27-.3-.66-.46-1.15-.46a1.62 1.62 0 00-1.68 1.56zM68.75 18h-1.08v-5.04-.2l-.01-.34h1.03l.04.9a2.23 2.23 0 01.96-.82c.24-.1.53-.16.86-.16a1.98 1.98 0 01.61.1l-.24 1a1.54 1.54 0 00-.55-.08c-.3 0-.58.08-.83.24a1.7 1.7 0 00-.79 1.46V18zm5.02 0l-2.4-5.58h1.24l1.74 4.36 1.72-4.36h1.17L74.85 18h-1.08zm4.27-6.58v-1.2h1.21v1.2h-1.2zm.07 6.58v-5.58h1.08V18h-1.08zm6.8-1.46l.66.7c-.24.27-.55.5-.92.68a3 3 0 01-1.26.25c-.6 0-1.12-.13-1.56-.39-.43-.25-.77-.6-1-1.04a3.2 3.2 0 01-.37-1.54c0-.54.13-1.04.37-1.48a2.88 2.88 0 012.56-1.48 2.81 2.81 0 012.17.94l-.7.68c-.17-.2-.38-.37-.62-.5a1.88 1.88 0 00-.85-.17 1.72 1.72 0 00-1.62 1.02 2.32 2.32 0 000 1.98c.15.3.36.55.64.74.27.2.6.29.98.29a1.86 1.86 0 001.52-.68zm5.87 0l.61.64a2.9 2.9 0 01-1.25.8c-.32.13-.72.19-1.2.19a2.73 2.73 0 01-2.56-1.43 3.33 3.33 0 01-.35-1.57c0-.55.11-1.04.35-1.48a2.75 2.75 0 012.43-1.44c.65 0 1.17.16 1.57.47.4.31.7.72.88 1.21.18.5.28 1.03.28 1.6h-4.4c0 .33.09.62.26.89.16.25.38.46.66.6.28.15.58.22.9.22a2.49 2.49 0 001.82-.7zm-3.65-1.82h3.3a1.8 1.8 0 00-.47-1.1c-.27-.3-.65-.46-1.15-.46a1.62 1.62 0 00-1.68 1.56zm7.75-3.3v-1.2h1.21v1.2h-1.2zm.07 6.58v-5.58h1.08V18h-1.08zm2.32-.68l.66-.72a2.27 2.27 0 001.69.66c.36 0 .66-.06.9-.17.24-.12.36-.3.36-.55a.6.6 0 00-.15-.42c-.1-.1-.26-.2-.49-.28a7.99 7.99 0 00-.96-.28 5.2 5.2 0 01-.84-.28c-.27-.13-.5-.3-.67-.52a1.36 1.36 0 01-.26-.86c0-.36.1-.67.3-.92.22-.24.5-.43.84-.55a3.51 3.51 0 012.28 0c.34.12.64.3.88.52l-.58.74a2.25 2.25 0 00-1.51-.54c-.35 0-.63.06-.83.17-.21.11-.32.3-.32.55 0 .24.14.42.42.54.28.11.64.22 1.08.33.36.08.67.18.95.32.29.13.52.3.69.53.17.22.26.51.26.87 0 .37-.11.68-.34.94-.21.25-.5.44-.85.58-.35.12-.73.19-1.14.19-1.05 0-1.85-.29-2.37-.85zm10.81.85c-.57 0-1.07-.13-1.52-.4-.45-.27-.8-.63-1.06-1.08a3.06 3.06 0 01-.37-1.49 2.88 2.88 0 011.43-2.56c.45-.26.95-.4 1.52-.4a2.88 2.88 0 012.95 2.96 2.99 2.99 0 01-1.44 2.57c-.44.27-.94.4-1.5.4zm0-.94c.4 0 .73-.1 1-.29a2.2 2.2 0 00.64-2.71 1.83 1.83 0 00-.64-.75c-.28-.2-.61-.3-1-.3-.38 0-.71.1-1 .3-.27.19-.49.44-.64.75a2.24 2.24 0 00.01 1.95c.15.3.36.55.64.75.28.2.6.3 1 .3zm4.61.77v-4.68h-1.02v-.9h1.02v-.38c0-.56.1-1 .3-1.34.2-.32.45-.56.74-.7a2 2 0 01.87-.2c.29 0 .57.04.83.14.27.1.52.25.74.46l-.52.7a1.37 1.37 0 00-.9-.37.9.9 0 00-.71.3c-.18.19-.27.51-.27.97v.42h2.6V12c0-.51.1-.93.28-1.25.19-.33.42-.57.71-.72.3-.16.61-.24.95-.24.3 0 .59.05.88.15.28.08.54.24.78.46l-.54.7c-.3-.25-.62-.37-.95-.37-.31 0-.56.1-.75.32-.18.21-.27.54-.27.99v.38h1.58v.9h-1.58V18h-1.08v-4.68h-2.6V18h-1.09zm11.45-1.46l.62.64a2.9 2.9 0 01-1.25.8c-.33.13-.73.19-1.2.19a2.73 2.73 0 01-2.56-1.43 3.33 3.33 0 01-.36-1.57c0-.55.12-1.04.35-1.48a2.75 2.75 0 012.44-1.44c.64 0 1.17.16 1.57.47.4.31.69.72.87 1.21.19.5.28 1.03.28 1.6h-4.4c0 .33.1.62.26.89.17.25.39.46.66.6.28.15.58.22.9.22a2.49 2.49 0 001.82-.7zm-3.64-1.82h3.28a1.8 1.8 0 00-.45-1.1c-.27-.3-.66-.46-1.15-.46a1.62 1.62 0 00-1.68 1.56zm6.68 3.28h-1.08v-5.04-.2l-.01-.34h1.03l.04.9a2.23 2.23 0 01.96-.82c.24-.1.53-.16.86-.16a1.98 1.98 0 01.61.1l-.24 1a1.54 1.54 0 00-.55-.08c-.3 0-.58.08-.83.24a1.7 1.7 0 00-.79 1.46V18zm7.46-1.46l.62.64a2.9 2.9 0 01-1.25.8c-.33.13-.73.19-1.2.19a2.73 2.73 0 01-2.56-1.43 3.33 3.33 0 01-.36-1.57c0-.55.12-1.04.35-1.48a2.75 2.75 0 012.44-1.44c.64 0 1.17.16 1.57.47.4.31.69.72.87 1.21.19.5.28 1.03.28 1.6H131c0 .33.1.62.26.89.17.25.39.46.66.6.28.15.58.22.9.22a2.49 2.49 0 001.82-.7zM131 14.72h3.28a1.8 1.8 0 00-.45-1.1c-.27-.3-.66-.46-1.15-.46a1.62 1.62 0 00-1.68 1.56zm9.66 3.28l-.04-.7-.31.3c-.15.15-.34.28-.59.4-.25.11-.55.17-.91.17-.47 0-.9-.12-1.27-.35a2.48 2.48 0 01-.9-1 3.37 3.37 0 01-.31-1.53c0-.53.08-.98.26-1.36a2.73 2.73 0 011.63-1.46 2.82 2.82 0 012.4.18V10h1.08v7.66l.01.34h-1.05zm-.04-2.35v-2a1.8 1.8 0 00-.55-.3c-.22-.07-.5-.11-.82-.11-.52 0-.95.18-1.3.55-.35.37-.52.87-.52 1.51 0 .35.06.68.17.97.12.3.3.53.54.71.24.17.54.25.9.25.39 0 .69-.08.9-.25.24-.18.4-.39.51-.64.12-.24.17-.48.17-.7zM19.72 32l-.02-.67c-.2.27-.48.48-.83.62s-.7.2-1.05.2c-.3 0-.6-.05-.9-.16-.3-.11-.55-.3-.75-.55-.2-.26-.3-.6-.3-1.02 0-.6.22-1.08.65-1.44a2.72 2.72 0 011.8-.54 8.26 8.26 0 011.36.08v-.2c0-.42-.13-.72-.38-.9a1.68 1.68 0 00-1.02-.27c-.42 0-.75.06-1 .18a3.7 3.7 0 00-.63.35l-.5-.73c.2-.16.47-.32.82-.47.35-.15.83-.23 1.43-.23.71 0 1.28.18 1.7.53.4.34.61.84.61 1.48v3.45c0 .08 0 .18.02.29h-1.01zm-.04-2v-.64a1.93 1.93 0 00-2.2.08.94.94 0 00-.44.44c-.07.16-.1.33-.1.5 0 .3.1.52.3.68.21.16.5.24.87.24a1.65 1.65 0 001.34-.67c.16-.2.23-.41.23-.63zm2.21 1.32l.66-.72a2.27 2.27 0 001.7.66c.35 0 .65-.06.9-.17.23-.12.35-.3.35-.55a.6.6 0 00-.14-.42c-.1-.1-.26-.2-.5-.28a8 8 0 00-.95-.28 5.2 5.2 0 01-.84-.28c-.27-.13-.5-.3-.67-.52a1.36 1.36 0 01-.27-.86c0-.36.1-.67.31-.92.22-.24.5-.43.83-.55a3.51 3.51 0 012.28 0c.35.12.64.3.89.52l-.59.74a2.25 2.25 0 00-1.51-.54c-.34 0-.62.06-.83.17-.2.11-.31.3-.31.55 0 .24.14.42.42.54.28.11.64.22 1.08.33.35.08.67.18.95.32.29.13.51.3.68.53.18.22.27.51.27.87 0 .37-.12.68-.34.94-.22.25-.5.44-.85.58-.35.12-.73.19-1.14.19-1.06 0-1.85-.29-2.38-.85zm11.65.68l-.03-.67c-.2.27-.47.48-.83.62a2.62 2.62 0 01-1.96.04c-.29-.11-.54-.3-.74-.55-.19-.26-.28-.6-.28-1.02 0-.6.2-1.08.63-1.44a2.72 2.72 0 011.81-.54 8.26 8.26 0 011.36.08v-.2c0-.42-.13-.72-.38-.9a1.68 1.68 0 00-1.02-.27c-.42 0-.76.06-1.01.18a3.7 3.7 0 00-.63.35l-.5-.73c.2-.16.48-.32.83-.47.35-.15.83-.23 1.43-.23.7 0 1.27.18 1.69.53.41.34.62.84.62 1.48v3.45l.01.29h-1zm-.04-2v-.64a1.93 1.93 0 00-2.2.08.94.94 0 00-.44.44c-.07.16-.1.33-.1.5 0 .3.1.52.3.68.21.16.5.24.87.24a1.65 1.65 0 001.34-.67c.15-.2.23-.41.23-.63zm8.86.54l.66.7c-.24.27-.55.5-.92.68a3 3 0 01-1.26.25c-.6 0-1.12-.13-1.56-.39-.43-.25-.77-.6-1-1.04a3.2 3.2 0 01-.37-1.54c0-.54.13-1.04.37-1.48a2.88 2.88 0 012.56-1.48 2.81 2.81 0 012.17.94l-.7.68c-.17-.2-.38-.37-.62-.5a1.88 1.88 0 00-.85-.17 1.72 1.72 0 00-1.62 1.02 2.32 2.32 0 000 1.98c.15.3.36.55.64.74.27.2.6.29.98.29a1.86 1.86 0 001.52-.68zM45.17 32H44.1v-5.04-.2-.34h1.02l.04.9a2.23 2.23 0 01.96-.82c.24-.1.53-.16.86-.16a1.98 1.98 0 01.62.1l-.24 1a1.54 1.54 0 00-.56-.08c-.3 0-.58.08-.82.24a1.7 1.7 0 00-.8 1.46V32zm5.68.17c-.57 0-1.08-.13-1.53-.4-.44-.27-.8-.63-1.05-1.08a3.06 3.06 0 01-.37-1.49 2.88 2.88 0 011.43-2.56c.44-.26.95-.4 1.52-.4a2.88 2.88 0 012.95 2.96 2.99 2.99 0 01-1.44 2.57c-.44.27-.94.4-1.51.4zm0-.94c.39 0 .72-.1 1-.29a2.2 2.2 0 00.64-2.71 1.83 1.83 0 00-.65-.75c-.28-.2-.6-.3-1-.3-.38 0-.7.1-.99.3-.28.19-.5.44-.65.75a2.24 2.24 0 00.02 1.95c.15.3.36.55.63.75.28.2.61.3 1 .3zm3.88.09l.66-.72a2.27 2.27 0 001.69.66c.36 0 .66-.06.9-.17.24-.12.36-.3.36-.55a.6.6 0 00-.14-.42c-.1-.1-.26-.2-.5-.28a8 8 0 00-.96-.28 5.2 5.2 0 01-.84-.28c-.27-.13-.5-.3-.67-.52a1.36 1.36 0 01-.26-.86c0-.36.1-.67.3-.92.23-.24.5-.43.84-.55a3.51 3.51 0 012.28 0c.34.12.64.3.89.52l-.6.74a2.25 2.25 0 00-1.51-.54c-.34 0-.61.06-.82.17-.21.11-.31.3-.31.55 0 .24.14.42.42.54.28.11.64.22 1.08.33.35.08.66.18.94.32.3.13.52.3.69.53.17.22.26.51.26.87 0 .37-.11.68-.33.94-.22.25-.5.44-.86.58-.35.12-.73.19-1.14.19-1.05 0-1.84-.29-2.37-.85zm5.66 0l.66-.72a2.27 2.27 0 001.69.66c.36 0 .66-.06.9-.17.24-.12.36-.3.36-.55a.6.6 0 00-.14-.42c-.1-.1-.26-.2-.5-.28a8 8 0 00-.96-.28 5.2 5.2 0 01-.84-.28c-.27-.13-.5-.3-.67-.52a1.36 1.36 0 01-.26-.86c0-.36.1-.67.3-.92.23-.24.5-.43.84-.55a3.51 3.51 0 012.28 0c.34.12.64.3.89.52l-.6.74a2.25 2.25 0 00-1.51-.54c-.34 0-.61.06-.82.17-.21.11-.31.3-.31.55 0 .24.14.42.42.54.28.11.64.22 1.08.33.35.08.66.18.94.32.3.13.52.3.69.53.17.22.26.51.26.87 0 .37-.11.68-.33.94-.22.25-.5.44-.86.58-.35.12-.73.19-1.14.19-1.05 0-1.84-.29-2.37-.85zm5.86-2.16v-1.04h3.51v1.04h-3.51zm4.84 2.16l.66-.72a2.27 2.27 0 001.69.66c.36 0 .66-.06.9-.17.24-.12.36-.3.36-.55a.6.6 0 00-.15-.42c-.1-.1-.26-.2-.49-.28a8 8 0 00-.96-.28 5.2 5.2 0 01-.84-.28c-.27-.13-.5-.3-.67-.52a1.36 1.36 0 01-.26-.86c0-.36.1-.67.3-.92.22-.24.5-.43.84-.55a3.51 3.51 0 012.28 0c.34.12.64.3.88.52l-.58.74a2.25 2.25 0 00-1.51-.54c-.35 0-.63.06-.83.17-.21.11-.32.3-.32.55 0 .24.14.42.42.54.28.11.64.22 1.08.33.36.08.67.18.95.32.3.13.52.3.69.53.17.22.26.51.26.87 0 .37-.11.68-.34.94-.21.25-.5.44-.85.58-.35.12-.73.19-1.14.19-1.05 0-1.85-.29-2.37-.85zm10.43-.78l.61.64a2.9 2.9 0 01-1.24.8c-.33.13-.73.19-1.2.19a2.73 2.73 0 01-2.56-1.43 3.33 3.33 0 01-.36-1.57c0-.55.12-1.04.35-1.48a2.75 2.75 0 012.43-1.44c.65 0 1.18.16 1.58.47.4.31.69.72.87 1.21.19.5.28 1.03.28 1.6h-4.4c0 .33.1.62.26.89.17.25.39.46.66.6.28.15.58.22.9.22a2.49 2.49 0 001.82-.7zm-3.65-1.82h3.3a1.8 1.8 0 00-.46-1.1c-.28-.3-.66-.46-1.16-.46a1.62 1.62 0 00-1.68 1.56zm5.6 3.28v-8h1.08v8h-1.08zM86 32v-8h1.08v8h-1.08zm2.53 1.4l.61-1.4h-.48v-1.33h1.36v1.32l-.83 1.41h-.66zm5.67-1.4v-4.68h-1v-.9h1v-.24c0-.58.11-1.04.34-1.4.23-.34.54-.6.92-.75a3.43 3.43 0 012.34-.08c.36.1.68.25.96.45l-.49.8c-.2-.13-.42-.24-.67-.34-.25-.1-.53-.14-.83-.14-.46 0-.83.1-1.1.3-.26.19-.39.53-.39 1.03v.37h3.5V32H97.7v-4.68h-2.4V32H94.2zm7.13 0h-1.08v-5-.22l-.01-.36h1.03l.04.84a2.58 2.58 0 01.98-.8c.25-.12.55-.17.89-.17.73 0 1.27.21 1.62.65.35.42.53 1 .53 1.71V32h-1.08v-3.26c0-.52-.12-.9-.35-1.14a1.2 1.2 0 00-.94-.38c-.4 0-.73.11-.97.33-.24.2-.41.48-.51.81-.1.34-.15.69-.15 1.05V32zm9.5 0l-.03-.7-.31.3c-.15.15-.34.28-.6.4-.24.11-.54.17-.9.17-.47 0-.9-.12-1.28-.35a2.48 2.48 0 01-.88-1 3.37 3.37 0 01-.33-1.53c0-.53.1-.98.27-1.36a2.73 2.73 0 011.63-1.46 2.82 2.82 0 012.4.18V24h1.08v7.66l.01.34h-1.06zm-.03-2.35v-2a1.8 1.8 0 00-.55-.3c-.23-.07-.5-.11-.82-.11-.52 0-.95.18-1.3.55-.35.37-.52.87-.52 1.51 0 .35.05.68.16.97.13.3.3.53.55.71.23.17.54.25.9.25.38 0 .68-.08.9-.25.24-.18.4-.39.51-.64.11-.24.17-.48.17-.7zm5.83 2.35h-1.08v-5-.22c0-.08 0-.2-.02-.36h1.03l.04.84a2.35 2.35 0 01.95-.8c.24-.12.53-.17.86-.17.44 0 .8.09 1.07.26.29.17.51.42.67.75.23-.27.5-.5.83-.7.33-.2.73-.31 1.2-.31.72 0 1.25.21 1.6.65.34.42.51 1 .51 1.71V32h-1.08v-3.26c0-1.01-.4-1.52-1.2-1.52-.3 0-.56.08-.79.24-.23.16-.42.36-.55.62-.14.24-.2.52-.2.82V32h-1.09v-3.26c0-.52-.1-.9-.3-1.14-.22-.25-.5-.38-.88-.38-.4 0-.7.11-.94.33-.23.21-.4.49-.5.83-.09.32-.13.67-.13 1.03V32zm11.8.17c-.57 0-1.08-.13-1.53-.4-.44-.27-.8-.63-1.05-1.08a3.06 3.06 0 01-.37-1.49 2.88 2.88 0 011.43-2.56c.44-.26.95-.4 1.52-.4a2.88 2.88 0 012.95 2.96 2.99 2.99 0 01-1.44 2.57c-.44.27-.94.4-1.51.4zm0-.94c.39 0 .72-.1 1-.29a2.2 2.2 0 00.64-2.71 1.83 1.83 0 00-.65-.75c-.28-.2-.6-.3-1-.3-.38 0-.7.1-.99.3-.28.19-.5.44-.65.75a2.24 2.24 0 00.02 1.95c.15.3.36.55.63.75.28.2.61.3 1 .3zm5.26.77h-1.08v-5.04-.2c0-.06 0-.18-.02-.34h1.04l.03.9a2.23 2.23 0 01.96-.82c.24-.1.53-.16.87-.16a1.98 1.98 0 01.6.1l-.23 1a1.54 1.54 0 00-.55-.08c-.3 0-.58.08-.83.24a1.7 1.7 0 00-.8 1.46V32zm7.46-1.46l.61.64a2.9 2.9 0 01-1.25.8c-.33.13-.73.19-1.2.19a2.73 2.73 0 01-2.56-1.43 3.33 3.33 0 01-.35-1.57c0-.55.11-1.04.34-1.48a2.75 2.75 0 012.44-1.44c.65 0 1.17.16 1.57.47.4.31.7.72.88 1.21.18.5.28 1.03.28 1.6h-4.4c0 .33.09.62.25.89.17.25.4.46.66.6.28.15.58.22.9.22a2.49 2.49 0 001.83-.7zm-3.65-1.82h3.29a1.8 1.8 0 00-.46-1.1c-.27-.3-.65-.46-1.15-.46a1.62 1.62 0 00-1.68 1.56zM21.22 46.17c-.56 0-1.07-.13-1.52-.4-.45-.27-.8-.63-1.06-1.08a3.06 3.06 0 01-.37-1.49 2.88 2.88 0 011.43-2.56c.45-.26.96-.4 1.52-.4a2.88 2.88 0 012.95 2.96 2.99 2.99 0 01-1.43 2.57c-.44.27-.95.4-1.52.4zm0-.94c.4 0 .73-.1 1-.29.28-.2.5-.45.64-.76a2.2 2.2 0 000-1.95 1.83 1.83 0 00-.64-.75c-.28-.2-.61-.3-1-.3-.38 0-.71.1-1 .3-.27.19-.49.44-.64.75a2.24 2.24 0 00.01 1.95c.15.3.36.55.64.75.28.2.6.3 1 .3zm5.26.77H25.4v-5-.22l-.01-.36h1.03l.04.84a2.58 2.58 0 01.98-.8c.25-.12.55-.17.89-.17.73 0 1.27.21 1.62.65.35.42.53 1 .53 1.71V46H29.4v-3.26c0-.52-.12-.9-.35-1.14a1.2 1.2 0 00-.94-.38c-.4 0-.73.11-.97.33-.24.2-.41.48-.51.81-.1.34-.15.69-.15 1.05V46zm11.54.2a3.98 3.98 0 01-3.77-2.56 4.38 4.38 0 01-.01-3.28 4.1 4.1 0 015.39-2.24A4.11 4.11 0 0142.1 42a4.33 4.33 0 01-1.18 2.98 3.97 3.97 0 01-2.9 1.22zm0-1.08c.59 0 1.1-.14 1.53-.43.43-.29.76-.67 1-1.14.24-.48.36-1 .36-1.57 0-.58-.12-1.1-.36-1.57a2.76 2.76 0 00-2.53-1.57c-.58 0-1.1.14-1.52.43-.43.28-.77.66-1.01 1.14-.23.47-.35 1-.35 1.57 0 .57.12 1.1.35 1.57.24.47.58.85 1 1.14.44.29.95.43 1.53.43zm4.52.88l3.14-8h1.17l3.13 8H48.7l-.83-2.23h-3.29L43.76 46h-1.22zm2.38-3.2h2.6l-1.3-3.52-1.3 3.52zm6.11 3.2v-8h1.17l4.37 6.25V38h1.13v8h-1.16l-4.38-6.26V46h-1.13zm8.49 0v-8h2.68c.84 0 1.6.14 2.24.43.66.28 1.17.71 1.54 1.3.37.6.56 1.36.56 2.29 0 .9-.19 1.64-.56 2.23-.37.59-.88 1.03-1.54 1.32-.66.29-1.4.43-2.26.43h-2.66zm1.15-1.03h1.49c1 0 1.78-.25 2.33-.73.56-.5.84-1.23.84-2.2 0-.98-.27-1.72-.82-2.23-.53-.52-1.33-.78-2.39-.78h-1.45v5.94zm6.3 1.03l3.13-8h1.17l3.14 8h-1.29l-.83-2.23h-3.28L68.18 46h-1.21zm2.37-3.2h2.6l-1.29-3.52-1.3 3.52zM79.87 46v-7H77v-1h6.88v1h-2.86v7h-1.15zm5 0l.37-8h1.1l2.44 4.16L91.2 38h1.08l.37 8h-1.12l-.27-6.14-2.25 3.78h-.58l-2.22-3.74-.28 6.1h-1.08zm9.07-1.2l.81-.74c.16.16.33.33.53.5a2.4 2.4 0 001.62.59c.53 0 .94-.12 1.24-.36.3-.25.44-.57.44-.97 0-.45-.17-.78-.5-1-.33-.22-.81-.4-1.45-.53a3.64 3.64 0 01-1.67-.78c-.43-.38-.64-.89-.64-1.52 0-.4.1-.75.3-1.08.2-.34.5-.6.9-.8.4-.21.9-.32 1.48-.32.52 0 .95.07 1.28.22a2.6 2.6 0 011.21.9l-.76.7a2.14 2.14 0 00-.91-.65c-.24-.1-.53-.15-.87-.15-.34 0-.61.06-.83.18-.21.11-.37.26-.48.43a.99.99 0 00-.15.53c0 .4.16.69.49.89.33.2.8.36 1.4.5.4.08.78.22 1.14.41.36.19.65.45.88.78.23.33.35.77.35 1.31 0 .46-.13.87-.38 1.22-.24.36-.58.64-1 .84a3.84 3.84 0 01-3.77-.46c-.27-.22-.5-.43-.66-.64zm9.62 1.2v-8h2.71a3 3 0 011.37.27c.36.19.63.43.8.75a2 2 0 01.05 1.9 1.8 1.8 0 01-1.1.84c.17.03.35.08.55.16.2.08.39.2.56.35.19.14.33.34.45.59a2 2 0 01.18.9c0 .56-.14 1.01-.41 1.34-.27.33-.63.56-1.08.7-.45.13-.95.2-1.51.2h-2.57zm1.11-4.67h1.43c.24 0 .47-.04.7-.12.23-.08.42-.2.56-.38.15-.18.23-.41.23-.7 0-.32-.08-.56-.23-.72a1.04 1.04 0 00-.56-.33 2.86 2.86 0 00-.7-.09h-1.43v2.34zm0 3.67h1.4c.2 0 .42 0 .63-.03a2 2 0 00.63-.17c.19-.09.34-.22.46-.4.12-.17.18-.4.18-.7 0-.39-.1-.68-.3-.87-.19-.2-.42-.33-.7-.4-.28-.08-.56-.11-.83-.11h-1.47V45zm6.88 1h-1.08v-5.04-.2l-.01-.34h1.03l.04.9a2.23 2.23 0 01.96-.82c.23-.1.52-.16.86-.16a1.98 1.98 0 01.61.1l-.24 1a1.54 1.54 0 00-.55-.08c-.3 0-.58.08-.83.24a1.7 1.7 0 00-.8 1.46V46zm5.67.17c-.56 0-1.07-.13-1.52-.4-.45-.27-.8-.63-1.06-1.08a3.06 3.06 0 01-.37-1.49 2.88 2.88 0 011.43-2.56c.45-.26.95-.4 1.52-.4a2.88 2.88 0 012.95 2.96 2.99 2.99 0 01-1.44 2.57c-.44.27-.94.4-1.5.4zm0-.94c.4 0 .73-.1 1-.29.28-.2.5-.45.64-.76a2.2 2.2 0 000-1.95 1.83 1.83 0 00-.64-.75c-.28-.2-.61-.3-1-.3-.38 0-.71.1-1 .3-.27.19-.49.44-.64.75a2.24 2.24 0 00.01 1.95c.15.3.36.55.64.75.28.2.6.3 1 .3zm4.17.77v-8h1.08v4.71l2.34-2.29h1.3l-2.12 2.06 2.43 3.52h-1.29l-1.9-2.8-.76.75V46h-1.08zm9.88-1.46l.61.64a2.9 2.9 0 01-1.25.8c-.32.13-.72.19-1.2.19a2.73 2.73 0 01-2.56-1.43 3.33 3.33 0 01-.35-1.57c0-.55.11-1.04.34-1.48a2.75 2.75 0 012.44-1.44c.65 0 1.17.16 1.57.47.4.31.7.72.88 1.21.18.5.28 1.03.28 1.6h-4.4c0 .33.09.62.26.89.16.25.38.46.65.6.28.15.59.22.9.22a2.49 2.49 0 001.83-.7zm-3.65-1.82h3.29a1.8 1.8 0 00-.46-1.1c-.27-.3-.65-.46-1.15-.46a1.62 1.62 0 00-1.68 1.56zm6.69 3.28h-1.08v-5.04-.2c0-.06 0-.18-.02-.34h1.04l.03.9a2.23 2.23 0 01.96-.82c.24-.1.53-.16.87-.16a1.98 1.98 0 01.6.1l-.23 1a1.54 1.54 0 00-.55-.08c-.3 0-.58.08-.83.24a1.7 1.7 0 00-.8 1.46V46zm2.68-.68l.66-.72a2.27 2.27 0 001.7.66c.36 0 .66-.06.9-.17.24-.12.35-.3.35-.55a.6.6 0 00-.14-.42c-.1-.1-.26-.2-.5-.28a8 8 0 00-.95-.28 5.2 5.2 0 01-.84-.28c-.27-.13-.5-.3-.67-.52a1.36 1.36 0 01-.27-.86c0-.36.1-.67.31-.92.22-.24.5-.43.83-.55a3.51 3.51 0 012.28 0c.35.12.64.3.9.52l-.6.74a2.25 2.25 0 00-1.51-.54c-.34 0-.62.06-.83.17-.2.11-.3.3-.3.55 0 .24.13.42.41.54.28.11.64.22 1.08.33.35.08.67.18.95.32.29.13.51.3.68.53.18.22.27.51.27.87 0 .37-.11.68-.34.94-.22.25-.5.44-.85.58-.35.12-.73.19-1.14.19-1.06 0-1.85-.29-2.38-.85zM25.47 60l-1.88-5.58h1.19l1.24 4.26 1.35-4.26h.92l1.35 4.3 1.22-4.3h1.12L30.13 60h-1.07l-1.3-3.9-1.28 3.9h-1zm11.66-1.46l.6.64a2.9 2.9 0 01-1.24.8c-.33.13-.73.19-1.2.19a2.73 2.73 0 01-2.56-1.43 3.33 3.33 0 01-.36-1.57c0-.55.12-1.04.35-1.48a2.75 2.75 0 012.44-1.44c.65 0 1.17.16 1.57.47.4.31.7.72.88 1.21.18.5.27 1.03.27 1.6h-4.4c0 .33.1.62.26.89.17.25.39.46.66.6.28.15.58.22.9.22a2.49 2.49 0 001.83-.7zm-3.65-1.82h3.29a1.8 1.8 0 00-.46-1.1c-.27-.3-.66-.46-1.15-.46a1.62 1.62 0 00-1.68 1.56zm5.6 3.09V52h1.08v3.03a2 2 0 01.6-.48c.3-.17.67-.26 1.13-.26.55 0 1.02.13 1.4.38.38.26.67.6.86 1.05a3.54 3.54 0 01-.11 3c-.26.46-.63.8-1.1 1.06-.47.26-1.01.39-1.64.39a7.05 7.05 0 01-2.22-.36zm1.07-2.95v2.22l.41.1c.17.04.41.05.73.05a1.95 1.95 0 002.04-2.04c0-.34-.05-.66-.17-.96-.1-.3-.27-.53-.51-.72a1.44 1.44 0 00-.93-.27c-.34 0-.63.07-.87.22-.23.16-.41.36-.53.6a1.9 1.9 0 00-.17.8zm5.2 2.46l.67-.72a2.27 2.27 0 001.69.66c.36 0 .66-.06.9-.17.24-.12.36-.3.36-.55a.6.6 0 00-.14-.42c-.1-.1-.26-.2-.5-.28a8 8 0 00-.96-.28 5.2 5.2 0 01-.84-.28c-.27-.13-.5-.3-.67-.52a1.36 1.36 0 01-.26-.86c0-.36.1-.67.31-.92.22-.24.5-.43.83-.55a3.51 3.51 0 012.28 0c.34.12.64.3.89.52l-.6.74a2.25 2.25 0 00-1.51-.54c-.34 0-.61.06-.82.17-.21.11-.31.3-.31.55 0 .24.14.42.42.54.28.11.64.22 1.08.33.35.08.66.18.94.32.3.13.52.3.69.53.17.22.26.51.26.87 0 .37-.11.68-.33.94-.22.25-.5.44-.86.58-.35.12-.73.19-1.14.19-1.05 0-1.84-.29-2.37-.85zm5.94-5.9v-1.2h1.22v1.2h-1.22zm.08 6.58v-5.58h1.08V60h-1.08zm3.09-1.82v-2.86h-1.01v-.9h1V52.6h1.09v1.82h1.63v.9h-1.63v2.75c0 .45.07.75.2.92.15.17.35.25.6.25a1.21 1.21 0 00.93-.38l.49.66a2.18 2.18 0 01-1.59.64c-.58 0-1.01-.16-1.3-.48-.27-.33-.41-.83-.41-1.5zm8.24.36l.6.64a2.9 2.9 0 01-1.24.8c-.33.13-.73.19-1.2.19a2.73 2.73 0 01-2.56-1.43 3.33 3.33 0 01-.36-1.57c0-.55.12-1.04.35-1.48a2.75 2.75 0 012.44-1.44c.65 0 1.17.16 1.57.47.4.31.7.72.88 1.21.18.5.27 1.03.27 1.6h-4.4c0 .33.1.62.26.89.17.25.4.46.66.6.28.15.58.22.9.22a2.49 2.49 0 001.83-.7zm-3.65-1.82h3.29a1.8 1.8 0 00-.46-1.1c-.27-.3-.66-.46-1.15-.46a1.62 1.62 0 00-1.68 1.56zM64.76 60v-1.34h1.36V60h-1.36zm7.22 0h-1.16a34.24 34.24 0 011.44-3.7c.27-.61.53-1.17.78-1.66.25-.5.47-.9.64-1.2h-3.72v-1.01h4.84v.98A31.28 31.28 0 0073 57.2 34.15 34.15 0 0071.98 60zm5.39 0v-.96h1.34V53.6l-1.56.84-.44-.85 2.12-1.16h.97v6.61h1.32V60h-3.75zm7.22 0l4.86-7.56h1.02L85.61 60H84.6zm5.9.1c-.54 0-.99-.18-1.34-.54-.35-.38-.53-.92-.53-1.62 0-.72.18-1.25.53-1.61.35-.37.8-.55 1.33-.55.55 0 1 .18 1.33.55.36.36.53.9.53 1.6 0 .71-.17 1.25-.53 1.63-.34.36-.78.55-1.33.55zm0-.75c.22 0 .42-.1.62-.31.2-.2.3-.58.3-1.1 0-.36-.05-.64-.15-.84a.85.85 0 00-.35-.44.78.78 0 00-.43-.13.9.9 0 00-.63.3c-.2.2-.3.57-.3 1.1 0 .53.1.9.3 1.11.2.2.4.31.63.31zm-5.85-2.78c-.54 0-.98-.19-1.33-.55-.36-.38-.53-.92-.53-1.62 0-.72.17-1.25.53-1.61.35-.37.8-.55 1.33-.55.54 0 .99.18 1.33.55.35.36.53.9.53 1.6 0 .71-.18 1.25-.53 1.63-.34.36-.79.55-1.33.55zm0-.76c.22 0 .43-.1.62-.31.2-.2.3-.58.3-1.1 0-.36-.05-.64-.14-.84a.85.85 0 00-.35-.44.78.78 0 00-.43-.13.9.9 0 00-.64.3c-.2.2-.3.57-.3 1.1 0 .53.1.9.3 1.11.2.2.41.31.64.31zm13.87 4.36c-.56 0-1.07-.13-1.52-.4-.45-.27-.8-.63-1.06-1.08a3.06 3.06 0 01-.37-1.49A2.88 2.88 0 0197 54.64c.45-.26.96-.4 1.52-.4a2.88 2.88 0 012.95 2.96 2.99 2.99 0 01-1.43 2.57c-.44.27-.95.4-1.52.4zm0-.94c.4 0 .73-.1 1-.29.28-.2.5-.45.64-.76a2.2 2.2 0 000-1.95 1.83 1.83 0 00-.64-.75c-.28-.2-.61-.3-1-.3-.38 0-.71.1-1 .3-.27.19-.49.44-.64.75a2.24 2.24 0 00.01 1.95c.15.3.37.55.64.75.28.2.61.3 1 .3zm4.6.77v-4.68h-1v-.9h1v-.46c0-.5.1-.91.28-1.23.18-.32.42-.56.72-.71.3-.15.61-.23.95-.23.3 0 .58.05.86.15.29.08.55.24.8.46l-.55.7c-.3-.25-.6-.37-.95-.37a1 1 0 00-.75.3c-.19.2-.28.54-.28 1.03v.36h1.6v.9h-1.6V60h-1.08zm6.8 0h-1.09v-5.04-.2l-.01-.34h1.03l.04.9a2.23 2.23 0 01.96-.82c.24-.1.53-.16.86-.16a1.98 1.98 0 01.61.1l-.24 1a1.54 1.54 0 00-.55-.08c-.3 0-.58.08-.83.24a1.7 1.7 0 00-.79 1.46V60zm7.45-1.46l.62.64a2.9 2.9 0 01-1.25.8c-.33.13-.73.19-1.2.19a2.73 2.73 0 01-2.56-1.43 3.33 3.33 0 01-.36-1.57c0-.55.12-1.04.35-1.48a2.75 2.75 0 012.44-1.44c.64 0 1.17.16 1.57.47.4.31.7.72.88 1.21.18.5.27 1.03.27 1.6h-4.4c0 .33.1.62.26.89.17.25.39.46.66.6.28.15.58.22.9.22a2.49 2.49 0 001.82-.7zm-3.64-1.82H117a1.8 1.8 0 00-.45-1.1c-.27-.3-.66-.46-1.15-.46a1.62 1.62 0 00-1.68 1.56zm6.08 1.46v-2.86h-1v-.9h1V52.6h1.08v1.82h1.63v.9h-1.63v2.75c0 .45.07.75.2.92.15.17.35.25.6.25a1.21 1.21 0 00.93-.38l.5.66a2.18 2.18 0 01-1.6.64c-.58 0-1-.16-1.29-.48-.28-.33-.42-.83-.42-1.5zm7.64 1.82l-.02-.67c-.2.27-.48.48-.83.62a2.62 2.62 0 01-1.96.04c-.29-.11-.54-.3-.74-.55-.19-.26-.29-.6-.29-1.02 0-.6.22-1.08.64-1.44a2.72 2.72 0 011.81-.54 8.26 8.26 0 011.36.08v-.2c0-.42-.13-.72-.39-.9a1.68 1.68 0 00-1.02-.27c-.41 0-.75.06-1 .18a3.7 3.7 0 00-.63.35l-.5-.73c.2-.16.47-.32.83-.47.35-.15.82-.23 1.42-.23.72 0 1.28.18 1.7.53.41.34.62.84.62 1.48v3.45l.01.29h-1zm-.03-2v-.64a1.93 1.93 0 00-2.2.08.94.94 0 00-.44.44c-.07.16-.11.33-.11.5 0 .3.1.52.31.68.21.16.5.24.87.24a1.65 1.65 0 001.34-.67c.15-.2.23-.41.23-.63zm2.48-4.58v-1.2h1.21v1.2h-1.2zm.07 6.58v-5.58h1.08V60h-1.08zm2.6 0v-8h1.08v8h-1.08zM18.83 71.92l.8.68a3.74 3.74 0 01-1.66 1.32c-.42.18-.91.27-1.47.27-.79 0-1.48-.18-2.09-.54a3.86 3.86 0 01-1.4-1.49 4.48 4.48 0 01-.5-2.13 4.55 4.55 0 011.1-2.98 3.8 3.8 0 012.91-1.25 3.68 3.68 0 013.11 1.59l-.82.7a3.8 3.8 0 00-.49-.57 2.46 2.46 0 00-1.79-.68 2.63 2.63 0 00-2.48 1.58c-.22.47-.34 1-.34 1.58 0 .58.12 1.1.34 1.58.23.47.56.84.97 1.12.42.28.91.41 1.48.41.48 0 .87-.07 1.17-.23.3-.15.55-.32.72-.5l.44-.46zM20.96 74v-8h5.03v1.03H22.1v2.45h2.95v1.02h-2.95V74h-1.15zm6.35 0v-8h2.68c.84 0 1.6.14 2.24.43.66.28 1.17.71 1.54 1.3.37.6.56 1.36.56 2.29 0 .9-.19 1.64-.56 2.23-.37.59-.88 1.03-1.54 1.32-.66.29-1.4.43-2.26.43h-2.66zm1.15-1.03h1.49c1 0 1.78-.25 2.33-.73.56-.5.84-1.23.84-2.2 0-.98-.27-1.72-.82-2.23-.53-.52-1.33-.78-2.39-.78h-1.45v5.94zM41.35 74l-.03-.67c-.2.27-.47.48-.83.62a2.62 2.62 0 01-1.96.04c-.29-.11-.54-.3-.74-.55-.19-.26-.28-.6-.28-1.02 0-.6.2-1.08.63-1.44a2.72 2.72 0 011.81-.54 8.26 8.26 0 011.36.08v-.2c0-.42-.13-.72-.38-.9a1.68 1.68 0 00-1.02-.27c-.42 0-.76.06-1.01.18a3.7 3.7 0 00-.63.35l-.5-.73c.2-.16.48-.32.83-.47.35-.15.83-.23 1.43-.23.7 0 1.27.18 1.69.53.41.34.62.84.62 1.48v3.45l.01.29h-1zm-.04-2v-.64a1.93 1.93 0 00-2.2.08.94.94 0 00-.44.44c-.07.16-.1.33-.1.5 0 .3.1.52.3.68.21.16.5.24.87.24a1.65 1.65 0 001.34-.67c.15-.2.23-.41.23-.63zm6.7.54l.66.7c-.25.27-.56.5-.93.68a3 3 0 01-1.26.25c-.6 0-1.12-.13-1.56-.39-.43-.25-.77-.6-1-1.04a3.2 3.2 0 01-.37-1.54c0-.54.13-1.04.38-1.48a2.88 2.88 0 012.56-1.48 2.81 2.81 0 012.17.94l-.71.68c-.17-.2-.38-.37-.62-.5a1.88 1.88 0 00-.85-.17 1.72 1.72 0 00-1.62 1.02c-.14.3-.21.63-.21 1a1.98 1.98 0 00.85 1.73 2.04 2.04 0 001.86.1c.26-.13.48-.3.65-.5zm5.57 0l.66.7c-.24.27-.55.5-.92.68a3 3 0 01-1.26.25c-.6 0-1.12-.13-1.56-.39-.43-.25-.77-.6-1-1.04a3.2 3.2 0 01-.37-1.54c0-.54.13-1.04.37-1.48a2.88 2.88 0 012.56-1.48 2.81 2.81 0 012.17.94l-.7.68c-.17-.2-.38-.37-.62-.5a1.88 1.88 0 00-.85-.17 1.72 1.72 0 00-1.62 1.02 2.32 2.32 0 000 1.98c.15.3.36.55.64.74.27.2.6.29.98.29a1.86 1.86 0 001.52-.68zm4.08 1.63c-.57 0-1.07-.13-1.52-.4-.45-.27-.8-.63-1.06-1.08a3.06 3.06 0 01-.37-1.49 2.88 2.88 0 011.43-2.56c.45-.26.95-.4 1.52-.4a2.88 2.88 0 012.95 2.96 2.99 2.99 0 01-1.44 2.57c-.44.27-.94.4-1.5.4zm0-.94c.4 0 .73-.1 1-.29a2.2 2.2 0 00.64-2.71 1.83 1.83 0 00-.64-.75c-.28-.2-.61-.3-1-.3-.38 0-.71.1-1 .3-.27.19-.49.44-.64.75a2.24 2.24 0 00.01 1.95c.15.3.36.55.64.75.28.2.6.3 1 .3zm4.15-1.46v-3.35h1.08v3.28c0 .52.1.9.32 1.14.22.24.53.36.94.36.41 0 .74-.11.97-.33.23-.21.4-.49.49-.81.1-.34.16-.69.16-1.05v-2.59h1.08V74h-1.02l-.04-.83a2.15 2.15 0 01-1.86.95c-.73 0-1.26-.21-1.6-.64-.35-.42-.52-1-.52-1.71zM69.43 74h-1.08v-5-.22c0-.08 0-.2-.02-.36h1.04l.03.84a2.58 2.58 0 01.99-.8c.24-.12.54-.17.88-.17.73 0 1.27.21 1.62.65.36.42.53 1 .53 1.71V74h-1.08v-3.26c0-.52-.11-.9-.35-1.14a1.2 1.2 0 00-.93-.38c-.41 0-.73.11-.97.33-.24.2-.42.48-.52.81-.1.34-.14.69-.14 1.05V74zm5.92-1.82v-2.86h-1v-.9h1V66.6h1.08v1.82h1.63v.9h-1.63v2.75c0 .45.07.75.2.92.15.17.35.25.6.25a1.21 1.21 0 00.93-.38l.5.66a2.18 2.18 0 01-1.6.64c-.58 0-1-.16-1.29-.48-.28-.33-.42-.83-.42-1.5zm3.83 1.14l.66-.72a2.27 2.27 0 001.69.66c.36 0 .66-.06.9-.17.24-.12.36-.3.36-.55a.6.6 0 00-.14-.42c-.1-.1-.26-.2-.5-.28a8 8 0 00-.96-.28 5.2 5.2 0 01-.84-.28c-.27-.13-.5-.3-.67-.52a1.36 1.36 0 01-.26-.86c0-.36.1-.67.31-.92.22-.24.5-.43.83-.55a3.51 3.51 0 012.28 0c.34.12.64.3.89.52l-.6.74a2.25 2.25 0 00-1.51-.54c-.34 0-.61.06-.82.17-.21.11-.31.3-.31.55 0 .24.14.42.42.54.28.11.64.22 1.08.33.35.08.66.18.94.32.3.13.52.3.69.53.17.22.26.51.26.87 0 .37-.11.68-.33.94-.22.25-.5.44-.86.58-.35.12-.73.19-1.14.19-1.05 0-1.84-.29-2.37-.85zm8.11.68v-8h1.08v8H87.3zm5.25.17c-.57 0-1.08-.13-1.53-.4-.44-.27-.8-.63-1.05-1.08a3.06 3.06 0 01-.37-1.49 2.88 2.88 0 011.43-2.56c.44-.26.95-.4 1.52-.4a2.88 2.88 0 012.95 2.96 2.99 2.99 0 01-1.44 2.57c-.44.27-.94.4-1.51.4zm0-.94c.39 0 .72-.1 1-.29a2.2 2.2 0 00.64-2.71 1.83 1.83 0 00-.65-.75c-.28-.2-.6-.3-1-.3-.38 0-.7.1-.99.3-.28.19-.5.44-.65.75a2.24 2.24 0 00.02 1.95c.15.3.36.55.63.75.28.2.61.3 1 .3zm3.88.09l.66-.72a2.27 2.27 0 001.69.66c.36 0 .66-.06.9-.17.24-.12.36-.3.36-.55a.6.6 0 00-.15-.42c-.1-.1-.26-.2-.49-.28a8 8 0 00-.96-.28 5.2 5.2 0 01-.84-.28c-.27-.13-.5-.3-.67-.52a1.36 1.36 0 01-.26-.86c0-.36.1-.67.3-.92.22-.24.5-.43.84-.55a3.51 3.51 0 012.28 0c.34.12.64.3.89.52l-.6.74a2.25 2.25 0 00-1.51-.54c-.34 0-.62.06-.82.17-.21.11-.32.3-.32.55 0 .24.14.42.42.54.28.11.64.22 1.08.33.36.08.67.18.95.32.3.13.52.3.69.53.17.22.26.51.26.87 0 .37-.11.68-.34.94-.21.25-.5.44-.85.58-.35.12-.73.19-1.14.19-1.05 0-1.85-.29-2.37-.85zm10.43-.78l.62.64a2.9 2.9 0 01-1.25.8c-.33.13-.73.19-1.2.19a2.73 2.73 0 01-2.56-1.43 3.33 3.33 0 01-.36-1.57c0-.55.12-1.04.35-1.48a2.75 2.75 0 012.44-1.44c.64 0 1.17.16 1.57.47.4.31.69.72.87 1.21.19.5.28 1.03.28 1.6h-4.4c0 .33.1.62.26.89.17.25.39.46.66.6.28.15.58.22.9.22a2.49 2.49 0 001.82-.7zm-3.64-1.82h3.28a1.8 1.8 0 00-.45-1.1c-.28-.3-.66-.46-1.16-.46a1.62 1.62 0 00-1.68 1.56zm8.85 3.28h-1.08v-5-.22l-.01-.36H112l.03.84a2.35 2.35 0 01.95-.8c.24-.12.53-.17.87-.17.43 0 .78.09 1.06.26.3.17.52.42.68.75.22-.27.5-.5.82-.7.33-.2.73-.31 1.2-.31.72 0 1.26.21 1.6.65.34.42.52 1 .52 1.71V74h-1.08v-3.26c0-1.01-.4-1.52-1.2-1.52-.3 0-.56.08-.8.24-.23.16-.41.36-.55.62-.13.24-.2.52-.2.82V74h-1.08v-3.26c0-.52-.1-.9-.31-1.14-.21-.25-.5-.38-.88-.38-.4 0-.7.11-.94.33-.23.21-.4.49-.49.83-.1.32-.14.67-.14 1.03V74zm11.8.17c-.57 0-1.07-.13-1.52-.4-.45-.27-.8-.63-1.06-1.08a3.06 3.06 0 01-.37-1.49 2.88 2.88 0 011.43-2.56c.45-.26.95-.4 1.52-.4a2.88 2.88 0 012.95 2.96 2.99 2.99 0 01-1.44 2.57c-.44.27-.94.4-1.5.4zm0-.94c.4 0 .73-.1 1-.29a2.2 2.2 0 00.64-2.71 1.83 1.83 0 00-.64-.75c-.28-.2-.61-.3-1-.3-.38 0-.71.1-1 .3-.27.19-.49.44-.64.75a2.24 2.24 0 00.01 1.95c.15.3.36.55.64.75.28.2.6.3 1 .3zm5.26.77h-1.08v-5-.22l-.01-.36h1.03l.04.84a2.58 2.58 0 01.98-.8c.25-.12.54-.17.89-.17.73 0 1.27.21 1.62.65.35.42.53 1 .53 1.71V74h-1.08v-3.26c0-.52-.12-.9-.35-1.14a1.2 1.2 0 00-.94-.38c-.4 0-.73.11-.97.33-.24.2-.41.48-.52.81-.1.34-.14.69-.14 1.05V74zm9.92-1.46l.62.64a2.9 2.9 0 01-1.25.8c-.33.13-.73.19-1.2.19a2.73 2.73 0 01-2.56-1.43 3.33 3.33 0 01-.36-1.57c0-.55.12-1.04.35-1.48a2.75 2.75 0 012.44-1.44c.64 0 1.17.16 1.57.47.4.31.69.72.87 1.21.19.5.28 1.03.28 1.6h-4.4c0 .33.1.62.26.89.17.25.39.46.66.6.28.15.58.22.9.22a2.49 2.49 0 001.82-.7zm-3.64-1.82h3.28a1.8 1.8 0 00-.45-1.1c-.27-.3-.66-.46-1.15-.46a1.62 1.62 0 00-1.68 1.56zm4.9 5.4l.5-.75c.07.07.16.13.27.19.1.06.23.08.38.08.26 0 .45-.11.58-.34.13-.23.28-.56.45-.99l.15-.36-2.5-5.53h1.24l1.8 4.21 1.58-4.21h1.18l-2.24 5.44-.32.82c-.11.32-.24.61-.4.9a2 2 0 01-.58.69c-.23.18-.53.27-.88.27a1.84 1.84 0 01-1.21-.42zm5.58-2.12v-1.34h1.36V74h-1.36z" fill="#fff"/></svg>