<svg width="115" height="80" viewBox="0 0 115 80" fill="none" xmlns="http://www.w3.org/2000/svg"><path d="M24.7 19L18.06 1.09h-3.9L7.47 19h3.85l1.43-4.29h6.7L20.92 19h3.8zM16.1 4.78l2.29 6.78h-4.58l2.3-6.78zm17.25 1.77c-1.17 0-3.07.7-3.64 2.28V6.86h-3.4V19h3.4v-6.37c0-2.21 1.5-2.86 2.73-2.86 1.17 0 2.31.86 2.31 2.76V19h3.4v-6.66c.03-3.64-1.63-5.8-4.8-5.8zm17.21 1.79c-.86-1.25-2.5-1.8-3.9-1.8-3.12 0-5.95 2.48-5.95 6.38s2.83 6.4 5.95 6.4c1.35 0 3.04-.58 3.9-1.83V19h3.4V.25h-3.4v8.09zm-3.25 7.8a3.2 3.2 0 01-3.15-3.22c0-1.8 1.43-3.2 3.15-3.2a3.2 3.2 0 013.15 3.2 3.2 3.2 0 01-3.15 3.22zm-14.8 33.17c3.45 0 6.52-2.55 6.52-6.37 0-3.85-3.07-6.4-6.52-6.4-3.46 0-6.53 2.55-6.53 6.4 0 3.82 3.07 6.37 6.53 6.37zm0-3.17a3.07 3.07 0 01-3.07-3.2c0-1.9 1.38-3.22 3.07-3.22s3.06 1.32 3.06 3.22c0 1.87-1.37 3.2-3.06 3.2zm16.15-9.6c-1.51 0-2.89.89-3.57 2.92v-2.6h-3.38V49h3.41v-4.16c0-3.46 1.2-5.1 2.94-5.1.41 0 1.01.06 1.74.45l.78-3.25a4.32 4.32 0 00-1.92-.4zm12.51 1.8c-.85-1.25-2.5-1.8-3.9-1.8-3.12 0-5.95 2.48-5.95 6.38s2.83 6.4 5.95 6.4c1.36 0 3.05-.58 3.9-1.83V49h3.41V30.25h-3.4v8.09zm-3.25 7.8a3.2 3.2 0 01-3.14-3.22c0-1.8 1.43-3.2 3.14-3.2a3.2 3.2 0 013.15 3.2 3.2 3.2 0 01-3.15 3.22zm22.14-3.4c0-3.72-2.84-6.2-6.32-6.2-3.46 0-6.45 2.48-6.45 6.4 0 3.75 2.73 6.37 6.47 6.37 2.14 0 4.24-.9 5.39-2.44l-1.98-2a4.34 4.34 0 01-3.2 1.43c-1.6 0-2.75-.84-3.12-2.27h9.13c.05-.54.08-.96.08-1.3zm-9.2-.92c.36-1.63 1.55-2.34 2.96-2.34 1.53 0 2.7.91 2.8 2.34h-5.77zm18.78-5.27c-1.51 0-2.89.88-3.57 2.9v-2.6H82.7V49h3.41v-4.16c0-3.46 1.2-5.1 2.94-5.1.41 0 1.01.06 1.74.45l.78-3.25a4.32 4.32 0 00-1.92-.4zM13.4 72.73c0-3.71-2.84-6.18-6.32-6.18-3.46 0-6.45 2.47-6.45 6.4 0 3.74 2.73 6.36 6.47 6.36 2.14 0 4.24-.9 5.39-2.44l-1.98-2a4.34 4.34 0 01-3.2 1.43c-1.61 0-2.75-.84-3.12-2.27h9.13c.05-.54.08-.96.08-1.3zm-9.2-.9c.36-1.64 1.55-2.35 2.96-2.35 1.53 0 2.7.91 2.8 2.34H4.2zm18.32.6l4-5.57h-4l-1.87 2.8-1.93-2.8H14.7l4 5.56L13.9 79h4l2.73-3.87L23.31 79h3.98l-4.76-6.58zm18 .3c0-3.71-2.84-6.18-6.32-6.18-3.46 0-6.45 2.47-6.45 6.4 0 3.74 2.73 6.36 6.47 6.36 2.13 0 4.24-.9 5.38-2.44l-1.97-2a4.34 4.34 0 01-3.2 1.43c-1.61 0-2.76-.84-3.12-2.27h9.13c.05-.54.07-.96.07-1.3zm-9.21-.9c.36-1.64 1.56-2.35 2.96-2.35 1.54 0 2.7.91 2.81 2.34h-5.77zm17.74 7.48a6.15 6.15 0 005.13-2.6l-2.58-1.8a3.2 3.2 0 01-2.52 1.23 3.15 3.15 0 01-3.22-3.25 3.1 3.1 0 013.22-3.17c.96 0 1.98.47 2.52 1.22l2.58-1.8a6.15 6.15 0 00-5.13-2.6c-3.53 0-6.65 2.5-6.65 6.35 0 3.85 3.12 6.42 6.65 6.42zm15.85-6.03c0 2.18-1.5 2.86-2.73 2.86-1.17 0-2.31-.88-2.31-2.78v-6.5h-3.4v6.68c-.03 3.64 1.63 5.77 4.8 5.77 1.2 0 3.12-.7 3.64-2.29V79h3.4V66.86h-3.4v6.42zm11.42-6.42v-4.42h-3.4v4.42H70.7v2.65h2.21V79h3.4v-9.49h2.58v-2.65h-2.57zm6.48-2.13a2.1 2.1 0 002.16-2.06c0-1.14-.96-2.03-2.16-2.03-1.17 0-2.16.89-2.16 2.03 0 1.15.99 2.06 2.16 2.06zM84.53 79V66.86h-3.41V79h3.4zm9.2.31c3.45 0 6.52-2.55 6.52-6.37 0-3.85-3.07-6.4-6.53-6.4-3.46 0-6.52 2.55-6.52 6.4 0 3.82 3.06 6.37 6.52 6.37zm0-3.17a3.07 3.07 0 01-3.08-3.2c0-1.9 1.38-3.22 3.07-3.22 1.7 0 3.07 1.32 3.07 3.22 0 1.87-1.38 3.2-3.07 3.2zm16.25-9.6c-1.17 0-3.07.7-3.64 2.3v-1.98h-3.4V79h3.4v-6.37c0-2.21 1.5-2.86 2.73-2.86 1.17 0 2.31.86 2.31 2.76V79h3.4v-6.66c.03-3.64-1.63-5.8-4.8-5.8z" fill="#fff"/><path d="M71.58 3.43V.25h-1.45c-3.46 0-5.33 2.08-5.33 5.72v.89h-2.3V9.5h2.3V19h3.4V9.51h2.65V6.86H68.2v-.91c.03-1.46.65-2.52 2.6-2.52h.78zm10.34 5.04a4.66 4.66 0 00-3.93-1.92c-3.48 0-5.93 2.62-5.93 6.4 0 3.76 2.5 6.36 5.85 6.36 1.64 0 3.2-.8 4-2.05V19h3.41V6.86h-3.4v1.61zm-3.25 7.67c-1.8 0-3.12-1.5-3.12-3.2a3.13 3.13 0 013.1-3.22 3.2 3.2 0 013.16 3.22 3.2 3.2 0 01-3.14 3.2zm14.38 3.17c2.5 0 5.1-1.32 5.1-3.87 0-.99-.37-2.81-3.28-3.59l-2-.52c-.68-.18-1.2-.47-1.2-1.04 0-.62.63-1.07 1.4-1.07.81 0 1.5.45 1.5 1.28h3.24c.03-2.89-2.57-3.95-4.78-3.95-2.81 0-4.76 1.76-4.76 3.64 0 1.27.41 3.01 3.53 3.84l1.62.4c.9.23 1.32.49 1.32 1 0 .71-.75 1.2-1.74 1.2-1.2 0-1.8-.75-1.8-1.45H88c.03 2.68 2.5 4.13 5.05 4.13zm12.27-12.45V2.44h-3.4v4.42H99.7V9.5h2.2V19h3.41V9.51h2.58V6.86h-2.58z" fill="#00D37E"/></svg>