<svg width="109" height="50" viewBox="0 0 109 50" fill="none" xmlns="http://www.w3.org/2000/svg"><path d="M17.38 19L10.72 1.09h-3.9L.14 19H4l1.43-4.29h6.7L13.59 19h3.8zM8.78 4.78l2.28 6.78H6.48l2.3-6.78zm15.6 31.77c-1.37 0-3.03.54-3.9 1.76v-8.06h-3.4V49h3.4v-1.5c.87 1.24 2.53 1.81 3.9 1.81 3.13 0 5.96-2.5 5.96-6.4 0-3.9-2.83-6.36-5.95-6.36zm-.64 9.59a3.2 3.2 0 01-3.15-3.22 3.2 3.2 0 013.15-3.2c1.71 0 3.12 1.4 3.12 3.2 0 1.76-1.4 3.22-3.12 3.22zm16.25-9.6c-1.5 0-2.88.89-3.56 2.92v-2.6h-3.38V49h3.4v-4.16c0-3.46 1.2-5.1 2.95-5.1.41 0 1.01.06 1.74.45l.78-3.25a4.32 4.32 0 00-1.93-.4zm9.17 12.77c3.46 0 6.52-2.55 6.52-6.37 0-3.85-3.06-6.4-6.52-6.4-3.46 0-6.53 2.55-6.53 6.4 0 3.82 3.07 6.37 6.53 6.37zm0-3.17a3.07 3.07 0 01-3.07-3.2c0-1.9 1.38-3.22 3.07-3.22s3.07 1.32 3.07 3.22c0 1.87-1.38 3.2-3.07 3.2zm15.32-3.93l4.73-5.35h-4.37l-3.07 3.72V30.25h-3.4V49h3.4v-5.25L66.04 49h4.23l-5.8-6.79zm18.54.52c0-3.71-2.83-6.18-6.31-6.18-3.46 0-6.45 2.47-6.45 6.4 0 3.74 2.73 6.36 6.47 6.36 2.13 0 4.24-.9 5.38-2.44l-1.97-2a4.34 4.34 0 01-3.2 1.43c-1.61 0-2.76-.84-3.12-2.27h9.13c.05-.54.07-.96.07-1.3zm-9.2-.9c.36-1.64 1.56-2.35 2.96-2.35 1.54 0 2.7.91 2.81 2.34h-5.77zm18.78-5.28c-1.5 0-2.88.88-3.56 2.9v-2.6h-3.38V49h3.4v-4.16c0-3.46 1.2-5.1 2.95-5.1.41 0 1 .06 1.74.45l.78-3.25a4.32 4.32 0 00-1.93-.4z" fill="#fff"/><path d="M29.1 6.86V2.44h-3.4v4.42h-2.2V9.5h2.2V19h3.4V9.51h2.58V6.86h-2.57zm11.74-.31c-1.5 0-2.88.88-3.56 2.9v-2.6H33.9V19h3.4v-4.16c0-3.46 1.2-5.1 2.95-5.1.41 0 1.01.06 1.74.45l.78-3.25a4.32 4.32 0 00-1.93-.4zm12.05 6.73c0 2.18-1.51 2.86-2.73 2.86-1.17 0-2.32-.88-2.32-2.78v-6.5h-3.4v6.68c-.03 3.64 1.63 5.77 4.8 5.77 1.2 0 3.13-.7 3.65-2.29V19h3.4V6.86h-3.4v6.42zM64 19.31c2.5 0 5.1-1.32 5.1-3.87 0-.99-.36-2.81-3.28-3.59l-2-.52c-.67-.18-1.2-.47-1.2-1.04 0-.62.63-1.07 1.41-1.07.8 0 1.48.45 1.48 1.28h3.25C68.8 7.6 66.2 6.55 64 6.55c-2.8 0-4.76 1.76-4.76 3.64 0 1.27.42 3.01 3.54 3.84l1.6.4c.92.23 1.33.49 1.33 1 0 .71-.75 1.2-1.74 1.2-1.2 0-1.8-.75-1.8-1.45h-3.19c.03 2.68 2.5 4.13 5.04 4.13zM76.3 6.86V2.44h-3.41v4.42h-2.21V9.5h2.2V19h3.42V9.51h2.57V6.86h-2.57zm16.55 5.87c0-3.71-2.84-6.18-6.32-6.18-3.46 0-6.45 2.47-6.45 6.4 0 3.74 2.73 6.36 6.48 6.36 2.13 0 4.23-.9 5.38-2.44l-1.98-2a4.34 4.34 0 01-3.2 1.43c-1.6 0-2.75-.84-3.12-2.27h9.13c.05-.54.08-.96.08-1.3zm-9.2-.9c.36-1.64 1.55-2.35 2.96-2.35 1.53 0 2.7.91 2.8 2.34h-5.77zm20.96-3.49c-.86-1.25-2.5-1.8-3.9-1.8-3.12 0-5.95 2.48-5.95 6.38s2.83 6.4 5.95 6.4c1.35 0 3.04-.58 3.9-1.83V19h3.4V.25h-3.4v8.09zm-3.25 7.8a3.2 3.2 0 01-3.15-3.22c0-1.8 1.43-3.2 3.15-3.2a3.2 3.2 0 013.15 3.2 3.2 3.2 0 01-3.15 3.22z" fill="#00D37E"/></svg>