<svg width="128" height="39" viewBox="0 0 128 39" fill="none" xmlns="http://www.w3.org/2000/svg"><path fill="#fff" d="M0 0h128v39H0z"/><path d="M29.87 25h-2.12v-8.23h-2.71v-1.76h7.54v1.76h-2.71V25zm8.35-7.79c.28 0 .52.02.7.07l-.15 1.95a2.39 2.39 0 00-.62-.07c-.66 0-1.18.17-1.56.51-.36.35-.55.83-.55 1.44V25h-2.08v-7.64h1.58l.3 1.28h.1c.24-.43.56-.77.96-1.03.4-.26.85-.4 1.32-.4zm1 .15h2.28l1.45 4.3c.12.37.2.81.25 1.32h.04c.05-.47.15-.9.3-1.32l1.4-4.3h2.24l-3.23 8.62c-.3.8-.72 1.4-1.27 1.79-.55.4-1.19.6-1.92.6-.36 0-.72-.05-1.06-.12v-1.66c.25.06.52.1.82.1.37 0 .69-.12.96-.35.28-.22.5-.56.65-1.02l.12-.37-3.03-7.6zm16.93 1.56h-1.8V25h-2.1v-6.08h-1.14v-1l1.15-.56v-.56c0-.87.21-1.5.64-1.91.43-.4 1.11-.6 2.06-.6.72 0 1.36.1 1.92.32l-.54 1.53c-.42-.13-.8-.2-1.16-.2-.3 0-.5.1-.64.27-.13.17-.2.4-.2.67v.48h1.8v1.56zM59 21.16c0 .76.12 1.33.37 1.72.25.39.66.58 1.22.58.55 0 .95-.19 1.2-.57.24-.39.36-.96.36-1.73 0-.75-.12-1.32-.37-1.7-.24-.38-.65-.56-1.2-.56-.56 0-.97.18-1.21.56-.25.38-.37.94-.37 1.7zm5.28 0a4.1 4.1 0 01-.98 2.92 3.57 3.57 0 01-2.74 1.06c-.74 0-1.38-.16-1.94-.48-.56-.33-1-.79-1.3-1.39-.3-.6-.45-1.3-.45-2.1 0-1.25.33-2.22.98-2.92a3.59 3.59 0 012.75-1.04c.73 0 1.38.16 1.94.48.56.32 1 .78 1.3 1.38.3.6.44 1.3.44 2.1zm6-3.95c.27 0 .5.02.7.07l-.16 1.95a2.39 2.39 0 00-.62-.07c-.66 0-1.18.17-1.55.51-.37.35-.56.83-.56 1.44V25h-2.08v-7.64h1.58l.3 1.28h.1c.24-.43.56-.77.96-1.03.4-.26.85-.4 1.32-.4zm9.95 1.71h-1.8V25h-2.1v-6.08H75.2v-1l1.15-.56v-.56c0-.87.21-1.5.64-1.91.43-.4 1.11-.6 2.06-.6.72 0 1.36.1 1.92.32l-.54 1.53c-.42-.13-.8-.2-1.16-.2-.3 0-.5.1-.64.27-.13.17-.2.4-.2.67v.48h1.8v1.56zm5.46-1.7c.29 0 .52.01.7.06l-.15 1.95a2.39 2.39 0 00-.61-.07c-.67 0-1.19.17-1.56.51-.37.35-.56.83-.56 1.44V25h-2.08v-7.64h1.58l.3 1.28h.1c.24-.43.56-.77.96-1.03.41-.26.85-.4 1.32-.4zm5.26 1.48c-.44 0-.79.14-1.04.42-.25.28-.4.68-.43 1.2h2.93c-.01-.52-.15-.92-.4-1.2a1.36 1.36 0 00-1.06-.42zm.3 6.44c-1.24 0-2.2-.34-2.89-1.02-.7-.68-1.04-1.64-1.04-2.89 0-1.28.32-2.27.96-2.96a3.43 3.43 0 012.66-1.06c1.08 0 1.92.31 2.52.93.6.61.9 1.46.9 2.55v1h-4.93a2 2 0 00.53 1.4c.33.33.79.5 1.38.5a5.73 5.73 0 002.6-.6v1.6a4.8 4.8 0 01-1.18.41c-.41.1-.92.14-1.52.14zm7.97-6.44c-.44 0-.79.14-1.04.42-.25.28-.4.68-.43 1.2h2.93c-.01-.52-.14-.92-.4-1.2a1.36 1.36 0 00-1.06-.42zm.3 6.44c-1.23 0-2.2-.34-2.89-1.02-.7-.68-1.04-1.64-1.04-2.89 0-1.28.32-2.27.96-2.96a3.42 3.42 0 012.66-1.06c1.08 0 1.92.31 2.52.93.6.61.9 1.46.9 2.55v1h-4.93a2 2 0 00.53 1.4c.33.33.79.5 1.38.5a5.74 5.74 0 002.6-.6v1.6a4.8 4.8 0 01-1.18.41c-.41.1-.92.14-1.51.14z" fill="#00214A"/></svg>