<svg width="116" height="33" viewBox="0 0 116 33" fill="none" xmlns="http://www.w3.org/2000/svg"><path d="M35.26 31.44h1.03c.01.36.37.66.84.66.48 0 .77-.25.77-.61 0-.28-.2-.48-.65-.61l-.62-.18c-1.13-.3-1.33-.96-1.33-1.42 0-.9.8-1.53 1.77-1.53.99 0 1.72.58 1.72 1.55h-1.04c0-.36-.25-.64-.7-.64-.4 0-.7.26-.7.6 0 .13.03.38.57.54l.57.16c.77.23 1.45.62 1.45 1.48 0 1-.87 1.56-1.84 1.56-1.09 0-1.84-.67-1.84-1.56zM46.75 32.91H45.7l-.38-3.14-1.24 2.57h-.82L42 29.77l-.37 3.14h-1.06l.63-5.07h.88l1.59 3.33 1.57-3.33h.89l.62 5.07zM51.88 32.91l-.42-1.21h-1.92l-.4 1.21h-1.1l1.9-5.07h1.12l1.9 5.07h-1.08zm-2.03-2.1h1.3l-.65-1.92-.65 1.92zM57.12 32.91L55.9 31.1h-.35v1.82h-1.03v-5.07h2.04c1.18 0 1.69.82 1.69 1.66 0 .72-.52 1.42-1.24 1.55l1.33 1.86h-1.22zm-1.57-4.16v1.52h.83c.58 0 .82-.35.82-.75s-.26-.77-.74-.77h-.9zM63.5 27.84v.9h-1.41v4.17h-1.04v-4.17h-1.41v-.9h3.86zM66.28 32h2.24v.91h-3.28v-5.07h3.22v.9h-2.18v1.21h1.9v.92h-1.9v1.14zM73.08 32.91l-1.22-1.82h-.35v1.82h-1.03v-5.07h2.05c1.17 0 1.68.82 1.68 1.66 0 .72-.52 1.42-1.24 1.55l1.33 1.86h-1.22zm-1.57-4.16v1.52h.83c.58 0 .83-.35.83-.75s-.27-.77-.75-.77h-.9zM82.06 27.84v.9h-1.42v4.17h-1.03v-4.17H78.2v-.9h3.86zM86.4 32.91l-1.22-1.82h-.35v1.82H83.8v-5.07h2.04c1.18 0 1.68.82 1.68 1.66 0 .72-.51 1.42-1.23 1.55l1.32 1.86h-1.2zm-1.57-4.16v1.52h.83c.58 0 .82-.35.82-.75s-.26-.77-.74-.77h-.91zM92.67 32.91l-.41-1.21h-1.92l-.41 1.21h-1.1l1.9-5.07h1.12l1.9 5.07h-1.08zm-2.03-2.1h1.31l-.65-1.92-.66 1.92zM97.32 27.84c1.48 0 2.33 1.1 2.33 2.55 0 1.44-.85 2.52-2.33 2.52h-2v-5.07h2zm0 4.16c.86 0 1.3-.75 1.3-1.61 0-.87-.44-1.65-1.3-1.65h-.97V32h.97zM101.58 32.91v-5.07h1.03v5.07h-1.03zM107.62 27.84h1.04v5.07h-.93l-1.86-3.18v3.18h-1.04v-5.07h.96l1.83 3.14v-3.14zM110.56 30.38a2.61 2.61 0 012.61-2.63c.78 0 1.46.32 1.9.81l-.75.64c-.29-.3-.7-.5-1.15-.5-.89 0-1.58.77-1.58 1.68 0 .9.68 1.7 1.61 1.7.67 0 1.33-.4 1.33-.99h-1.45v-.83h2.59c0 1.88-1.05 2.74-2.44 2.74a2.6 2.6 0 01-2.67-2.62zM42.16 7.18a7.83 7.83 0 000 15.67 7.83 7.83 0 000-15.67zm-.02 12.26c-2.39 0-4.12-1.87-4.12-4.44 0-2.57 1.73-4.41 4.12-4.41s4.14 1.9 4.14 4.41c0 2.52-1.78 4.44-4.14 4.44zM78.48 7.43v7.46l-5.56-7.46h-3.5V22.6h3.91v-7.56l5.69 7.56h3.36V7.43h-3.9zM92.1 7.43H85.7V22.6h6.41c4.2 0 7.01-3.03 7.01-7.54 0-4.52-2.81-7.62-7-7.62zm-2.5 3.44h2.5c2.12 0 3.08 2.17 3.08 4.18 0 2-.96 4.1-3.08 4.1h-2.5v-8.28zM62.93 22.6h4.2L60.86 7.42l-1.94.01h-1.95l-6.25 15.15h4.19l1.25-3.43h5.5l1.26 3.43zm-5.52-6.82l1.52-4.14 1.51 4.14h-3.03zM111.81 22.6H116l-6.25-15.17-1.95.01h-1.94L99.6 22.58h4.19l1.25-3.43h5.5l1.26 3.43zm-5.52-6.82l1.51-4.14 1.52 4.14h-3.03zM6.62 20.24H2.24L0 11.8h4.38l2.24 8.44z" fill="#fff"/><path d="M25.25 13h-4.38L24.4 0h4.38l-3.52 13zM16.46 6.5l-3.7 13.66-2.17 8h4.38L20.84 6.5h-4.38z" fill="#00D37E"/><path d="M11.35 15H6.97l3.53 13.15h4.42L11.35 15z" fill="#fff"/></svg>