<?xml version="1.0" encoding="UTF-8"?><svg xmlns="http://www.w3.org/2000/svg" viewBox="0 0 254.94 178.57"><defs><style>.d{fill:#00d639;}.e{fill:#fff;}</style></defs><g id="a"/><g id="b"><g id="c"><g><path class="d" d="M28.17,0c15.95,0,28.92,11.03,29.22,26.38,.15,4.32-2.98,6.71-6.41,6.71s-6.11-2.39-6.26-6.41c-.15-8.65-7.45-15.06-16.7-15.06-8.65,0-15.2,6.11-15.2,14.46,0,9.09,6.11,13.12,18.78,17.74,13.57,4.92,25.94,10.73,25.94,28.02,0,15.06-11.78,27.13-28.17,27.13S0,87.65,0,72.3c0-9.54,4.62-16.25,9.09-16.25,3.88,0,6.26,2.53,6.26,5.96,0,2.98-2.53,4.32-2.53,9.69,0,9.54,7.75,15.65,16.55,15.65,9.24,0,15.35-6.41,15.35-14.16,0-9.54-6.11-13.57-18.78-18.04C11.78,50.09,0,43.97,0,27.13,0,11.93,12.22,0,28.17,0h0Z"/><path class="d" d="M93.23,98.98c-16.1,0-29.52-12.97-29.52-29.37s13.57-29.66,29.96-29.66c17.59,0,29.96,13.12,29.96,31.01v21.76c0,3.73-2.98,6.26-6.41,6.26s-6.56-2.53-6.56-6.26v-21.32c0-11.78-6.71-19.83-17.29-19.83-9.39,0-16.84,7.9-16.84,18.04,0,9.39,7.3,17.44,16.55,17.44,3.43,0,4.92-.89,7.01-.89,2.83,0,5.81,2.39,5.81,5.81,0,4.62-5.52,7.01-12.67,7.01h0Z"/><path class="d" d="M160.37,143.4c-16.7,0-30.56-11.93-30.56-27.43,0-5.22,2.98-7.6,6.41-7.6s6.26,2.24,6.41,6.56c.15,9.69,7.9,16.84,17.59,16.84,10.29,0,16.99-6.56,16.99-15.06,0-9.69-7.45-13.71-20.12-17.74-14.76-4.77-27.28-11.33-27.28-29.52,0-16.7,12.82-29.52,29.52-29.52s30.71,12.22,30.71,28.32c0,9.84-4.02,17.44-9.54,17.44-3.73,0-6.26-2.68-6.26-5.96s2.98-4.92,2.98-11.03c0-10.29-8.05-17.14-17.74-17.14s-16.84,7.16-16.84,16.55c0,10.58,7.6,15.06,20.12,19.23,14.46,4.77,27.28,10.73,27.28,28.17,0,15.65-12.37,27.88-29.66,27.88h0Z"/><path class="d" d="M226.61,98.98c-16.7,0-30.41-13.12-30.41-29.52s13.27-29.52,29.66-29.52,29.07,11.48,29.07,26.09c0,5.66-4.02,9.09-10.58,9.09h-17.14c-3.43,0-5.96-2.39-5.96-5.52s2.53-5.37,5.96-5.37h12.82c1.19,0,2.09-.6,2.09-1.79,0-4.32-5.52-11.03-15.8-11.03-9.54,0-17.29,8.2-17.29,18.04s7.9,17.89,17.74,17.89c11.33,0,15.06-6.71,19.68-6.71,3.88,0,5.96,2.53,5.96,5.37,0,2.68-1.79,5.07-6.26,7.9-4.47,2.83-11.18,5.07-19.53,5.07h0Z"/></g><g><path class="e" d="M11.8,173.53c-.27,0-.34-.15-.34-.34v-16.27c0-.19,.07-.34,.34-.34h2.13c.22,0,.36,.15,.36,.34v5.86c.7-1.28,1.96-1.96,3.42-1.96,2.37,0,4.07,1.57,4.07,4.43v7.94c0,.19-.12,.34-.34,.34h-2.18c-.24,0-.32-.15-.32-.34v-7.48c0-1.77-.97-2.66-2.32-2.66s-2.33,.9-2.33,2.66v7.48c0,.19-.14,.34-.36,.34h-2.13Z"/><path class="e" d="M29.89,173.72c-3.39,0-5.88-2.37-5.88-6.46s2.47-6.44,5.67-6.44,5.52,2.4,5.52,6.42c0,.46-.1,.68-.41,.68h-8.04c.17,2.52,1.41,3.66,3.12,3.66,1.19,0,2.08-.56,2.69-1.69,.1-.17,.22-.19,.44-.15l1.65,.41c.27,.07,.34,.19,.27,.39-.73,1.62-2.25,3.2-5.01,3.2Zm-.27-10.8c-1.43,0-2.54,.92-2.83,3.15h5.69c-.27-2.23-1.4-3.15-2.86-3.15Z"/><path class="e" d="M36.88,170.5v-11.77h-2.37c-.15,0-.27-.15-.27-.31v-1.55c0-.19,.12-.29,.27-.29h4.94c.15,0,.27,.12,.27,.29v13.08c0,.94,.53,1.45,1.48,1.45,.36,0,.77-.07,1.26-.22,.19-.05,.29,.07,.29,.22l.12,1.62c.02,.12-.02,.24-.17,.29-.51,.24-1.38,.41-2.18,.41-2.3,0-3.63-1.28-3.63-3.22Z"/><path class="e" d="M44.29,178.11v-16.76c0-.19,.07-.34,.34-.34h2.13c.22,0,.36,.15,.36,.34v1.79c.75-1.5,1.99-2.32,3.71-2.32,2.88,0,5.01,2.32,5.01,6.44s-2.13,6.46-5.01,6.46c-1.72,0-2.95-.85-3.71-2.32v6.71c0,.17-.14,.31-.36,.31h-2.13c-.27,0-.34-.15-.34-.31Zm8.74-10.85c0-2.83-1.24-4.19-2.98-4.19s-2.93,1.36-2.93,4.19,1.24,4.19,2.93,4.19,2.98-1.38,2.98-4.19Z"/><path class="e" d="M62.74,173.72c-2.3,0-3.63-1.26-3.63-3.22v-7.29h-2.35c-.17,0-.31-.15-.31-.32v-1.62c0-.17,.12-.27,.31-.27h4.92c.17,0,.29,.1,.29,.27v8.72c0,.94,.51,1.43,1.45,1.43,.36,0,.78-.1,1.26-.22,.19-.07,.29,.05,.29,.19l.12,1.65c.02,.12-.02,.22-.17,.29-.51,.24-1.38,.39-2.18,.39Zm-2.2-14.8c-.9,0-1.84-.7-1.84-1.74s.94-1.74,1.84-1.74,1.79,.7,1.79,1.74-.92,1.74-1.79,1.74Z"/><path class="e" d="M66.52,173.19v-11.87c0-.17,.07-.31,.34-.31h2.16c.22,0,.34,.15,.34,.31v1.45c.7-1.28,1.96-1.96,3.42-1.96,2.37,0,4.07,1.6,4.07,4.43v7.94c0,.19-.12,.34-.34,.34h-2.15c-.24,0-.34-.15-.34-.34v-7.48c0-1.77-.97-2.66-2.32-2.66s-2.33,.9-2.33,2.66v7.48c0,.19-.12,.34-.34,.34h-2.16c-.27,0-.34-.15-.34-.34Z"/><path class="e" d="M84.32,176.34c1.82,0,2.98-.99,2.98-3.27v-1.77c-.73,1.45-1.96,2.28-3.66,2.28-2.91,0-5.06-2.33-5.06-6.34s2.16-6.42,5.06-6.42c1.7,0,2.93,.82,3.66,2.3v-1.77c0-.19,.12-.34,.36-.34h2.16c.22,0,.36,.15,.36,.34v11.99c0,3.32-2.54,5.23-5.81,5.23-2.47,0-4.12-.75-5.25-2.28-.12-.17-.12-.32,0-.44l1.36-1.24c.12-.1,.24-.15,.41,.02,1.04,1.31,2.13,1.69,3.44,1.69Zm-2.91-9.1c0,2.78,1.26,4.17,2.98,4.17s2.91-1.38,2.91-4.17-1.21-4.19-2.91-4.19-2.98,1.36-2.98,4.19Z"/><path class="e" d="M98.89,173.53c-.27,0-.34-.15-.34-.34v-16.27c0-.19,.07-.34,.34-.34h2.13c.22,0,.36,.15,.36,.34v6.22c.75-1.5,1.99-2.32,3.71-2.32,2.88,0,5.01,2.32,5.01,6.44s-2.13,6.46-5.01,6.46c-1.72,0-2.95-.85-3.71-2.32v1.79c0,.19-.14,.34-.36,.34h-2.13Zm8.4-6.27c0-2.83-1.26-4.19-2.98-4.19s-2.93,1.36-2.93,4.19,1.24,4.19,2.93,4.19,2.98-1.38,2.98-4.19Z"/><path class="e" d="M119.86,168.81v-7.46c0-.19,.1-.34,.34-.34h2.15c.24,0,.34,.15,.34,.34v11.84c0,.19-.1,.34-.34,.34h-2.15c-.24,0-.34-.15-.34-.34v-1.43c-.7,1.28-1.99,1.96-3.44,1.96-2.37,0-4.04-1.57-4.04-4.43v-7.94c0-.19,.07-.34,.34-.34h2.16c.22,0,.34,.15,.34,.34v7.46c0,1.82,.97,2.69,2.3,2.69s2.35-.87,2.35-2.69Z"/><path class="e" d="M129.53,160.82c2.18,0,3.95,1.11,4.87,2.62,.1,.14,.1,.36-.1,.46l-1.33,.94c-.15,.12-.29,.07-.41-.1-.85-1.26-1.84-1.84-2.95-1.84s-1.86,.51-1.86,1.48c0,2.52,6.93,1.07,6.93,5.47,0,2.45-2.18,3.87-5.04,3.87-2.64,0-4.31-1.16-5.13-2.59-.1-.17-.15-.34,.07-.46l1.33-.97c.15-.12,.32-.15,.41,.02,.85,1.38,1.99,1.96,3.24,1.96,1.38,0,2.33-.6,2.33-1.65,0-2.42-6.95-.87-6.95-5.47,0-2.32,1.96-3.75,4.6-3.75Z"/><path class="e" d="M141.71,173.72c-2.3,0-3.63-1.26-3.63-3.22v-7.29h-2.35c-.17,0-.31-.15-.31-.32v-1.62c0-.17,.12-.27,.31-.27h4.92c.17,0,.29,.1,.29,.27v8.72c0,.94,.51,1.43,1.45,1.43,.36,0,.78-.1,1.26-.22,.19-.07,.29,.05,.29,.19l.12,1.65c.02,.12-.02,.22-.17,.29-.51,.24-1.38,.39-2.18,.39Zm-2.2-14.8c-.9,0-1.84-.7-1.84-1.74s.94-1.74,1.84-1.74,1.79,.7,1.79,1.74-.92,1.74-1.79,1.74Z"/><path class="e" d="M145.48,173.19v-11.87c0-.17,.07-.31,.34-.31h2.16c.22,0,.34,.15,.34,.31v1.45c.7-1.28,1.96-1.96,3.42-1.96,2.37,0,4.07,1.6,4.07,4.43v7.94c0,.19-.12,.34-.34,.34h-2.15c-.24,0-.34-.15-.34-.34v-7.48c0-1.77-.97-2.66-2.32-2.66s-2.33,.9-2.33,2.66v7.48c0,.19-.12,.34-.34,.34h-2.16c-.27,0-.34-.15-.34-.34Z"/><path class="e" d="M163.43,173.72c-3.39,0-5.88-2.37-5.88-6.46s2.47-6.44,5.67-6.44,5.52,2.4,5.52,6.42c0,.46-.1,.68-.41,.68h-8.04c.17,2.52,1.41,3.66,3.12,3.66,1.19,0,2.08-.56,2.69-1.69,.1-.17,.22-.19,.44-.15l1.65,.41c.27,.07,.34,.19,.27,.39-.73,1.62-2.25,3.2-5.01,3.2Zm-.27-10.8c-1.43,0-2.54,.92-2.83,3.15h5.69c-.27-2.23-1.4-3.15-2.86-3.15Z"/><path class="e" d="M175.22,160.82c2.18,0,3.95,1.11,4.87,2.62,.1,.14,.1,.36-.1,.46l-1.33,.94c-.15,.12-.29,.07-.41-.1-.85-1.26-1.84-1.84-2.95-1.84s-1.86,.51-1.86,1.48c0,2.52,6.93,1.07,6.93,5.47,0,2.45-2.18,3.87-5.04,3.87-2.64,0-4.31-1.16-5.13-2.59-.1-.17-.15-.34,.07-.46l1.33-.97c.15-.12,.31-.15,.41,.02,.85,1.38,1.99,1.96,3.24,1.96,1.38,0,2.33-.6,2.33-1.65,0-2.42-6.95-.87-6.95-5.47,0-2.32,1.96-3.75,4.6-3.75Z"/><path class="e" d="M186.65,160.82c2.18,0,3.95,1.11,4.87,2.62,.1,.14,.1,.36-.1,.46l-1.33,.94c-.15,.12-.29,.07-.41-.1-.85-1.26-1.84-1.84-2.95-1.84s-1.86,.51-1.86,1.48c0,2.52,6.93,1.07,6.93,5.47,0,2.45-2.18,3.87-5.04,3.87-2.64,0-4.31-1.16-5.13-2.59-.1-.17-.15-.34,.07-.46l1.33-.97c.15-.12,.31-.15,.41,.02,.85,1.38,1.99,1.96,3.24,1.96,1.38,0,2.33-.6,2.33-1.65,0-2.42-6.95-.87-6.95-5.47,0-2.32,1.96-3.75,4.6-3.75Z"/><path class="e" d="M197.66,163.24c-.12,0-.27-.1-.27-.29v-1.67c0-.19,.15-.27,.27-.27h2.37v-1.31c0-2.35,1.48-3.85,4.07-3.85,.85,0,1.86,.22,2.59,.68,.15,.1,.17,.22,.1,.39l-.68,1.5c-.07,.15-.17,.17-.29,.12-.56-.32-1.04-.46-1.45-.46-.94,0-1.45,.58-1.45,1.62v1.31h3.05c.17,0,.29,.07,.29,.27v1.67c0,.19-.12,.29-.29,.29h-3.05v9.95c0,.19-.12,.34-.34,.34h-2.18c-.24,0-.36-.15-.36-.34v-9.95h-2.37Z"/><path class="e" d="M210.62,170.5v-11.77h-2.37c-.15,0-.27-.15-.27-.31v-1.55c0-.19,.12-.29,.27-.29h4.94c.15,0,.27,.12,.27,.29v13.08c0,.94,.53,1.45,1.48,1.45,.36,0,.77-.07,1.26-.22,.19-.05,.29,.07,.29,.22l.12,1.62c.02,.12-.02,.24-.17,.29-.51,.24-1.38,.41-2.18,.41-2.3,0-3.63-1.28-3.63-3.22Z"/><path class="e" d="M217.18,167.26c0-4.07,2.45-6.47,5.79-6.47s5.76,2.4,5.76,6.47-2.45,6.46-5.76,6.46-5.79-2.37-5.79-6.46Zm8.74,0c0-2.79-1.24-4.19-2.95-4.19s-2.98,1.4-2.98,4.19,1.23,4.24,2.98,4.24,2.95-1.43,2.95-4.24Z"/><path class="e" d="M235.82,162.83c.05-.17,.17-.24,.32-.24h1.65c.17,0,.24,.07,.29,.24l2.23,7.02,1.89-8.6c.05-.19,.17-.24,.34-.24h1.96c.19,0,.29,.19,.24,.36l-2.86,11.91c-.02,.15-.19,.24-.36,.24h-2.13c-.19,0-.32-.1-.34-.27l-2.13-7.19-2.11,7.19c-.05,.17-.15,.27-.34,.27h-2.13c-.19,0-.32-.1-.39-.24l-2.83-11.91c-.05-.17,.05-.36,.24-.36h2.01c.17,0,.31,.05,.36,.24l1.89,8.55,2.2-6.97Z"/></g></g></g></svg>